<svg xmlns="http://www.w3.org/2000/svg" xmlns:xlink="http://www.w3.org/1999/xlink" contentStyleType="text/css" data-diagram-type="DESCRIPTION" height="775.8px" preserveAspectRatio="none" style="width:419px;height:775px;background:#FFFFFF;" version="1.1" viewBox="0 0 419 775" width="419.4px" zoomAndPan="magnify"><defs/><g><!--cluster App--><g class="cluster" data-entity="App" data-source-line="5" data-uid="ent0005" id="cluster_App"><path d="M7.65,134.55 L145.7719,134.55 A3.375,3.375 0 0 1 148.0219,136.8 L154.3219,156.709 L410.85,156.709 A2.25,2.25 0 0 1 413.1,158.959 L413.1,657 A2.25,2.25 0 0 1 410.85,659.25 L7.65,659.25 A2.25,2.25 0 0 1 5.4,657 L5.4,136.8 A2.25,2.25 0 0 1 7.65,134.55" fill="none" style="stroke:#000000;stroke-width:1.35;"/><line style="stroke:#000000;stroke-width:1.35;" x1="5.4" x2="154.3219" y1="156.709" y2="156.709"/><text fill="#000000" font-family="sans-serif" font-size="12.6" font-weight="bold" lengthAdjust="spacing" textLength="137.2219" x="9" y="149.9467">Application (Port 3000)</text></g><!--cluster MW--><g class="cluster" data-entity="MW" data-source-line="10" data-uid="ent0007" id="cluster_MW"><path d="M29.25,270.45 L98.7671,270.45 A3.375,3.375 0 0 1 101.0171,272.7 L107.3171,292.609 L212.85,292.609 A2.25,2.25 0 0 1 215.1,294.859 L215.1,360 A2.25,2.25 0 0 1 212.85,362.25 L29.25,362.25 A2.25,2.25 0 0 1 27,360 L27,272.7 A2.25,2.25 0 0 1 29.25,270.45" fill="none" style="stroke:#000000;stroke-width:1.35;"/><line style="stroke:#000000;stroke-width:1.35;" x1="27" x2="107.3171" y1="292.609" y2="292.609"/><text fill="#000000" font-family="sans-serif" font-size="12.6" font-weight="bold" lengthAdjust="spacing" textLength="68.6171" x="30.6" y="285.8467">Middleware</text></g><!--cluster Controller--><g class="cluster" data-entity="Controller" data-source-line="15" data-uid="ent0010" id="cluster_Controller"><path d="M238.95,270.45 L300.0507,270.45 A3.375,3.375 0 0 1 302.3007,272.7 L308.6007,292.609 L389.25,292.609 A2.25,2.25 0 0 1 391.5,294.859 L391.5,360 A2.25,2.25 0 0 1 389.25,362.25 L238.95,362.25 A2.25,2.25 0 0 1 236.7,360 L236.7,272.7 A2.25,2.25 0 0 1 238.95,270.45" fill="none" style="stroke:#000000;stroke-width:1.35;"/><line style="stroke:#000000;stroke-width:1.35;" x1="236.7" x2="308.6007" y1="292.609" y2="292.609"/><text fill="#000000" font-family="sans-serif" font-size="12.6" font-weight="bold" lengthAdjust="spacing" textLength="60.2007" x="240.3" y="285.8467">Controller</text></g><!--cluster Service--><g class="cluster" data-entity="Service" data-source-line="19" data-uid="ent0012" id="cluster_Service"><path d="M170.55,408.15 L216.2883,408.15 A3.375,3.375 0 0 1 218.5383,410.4 L224.8383,430.309 L295.65,430.309 A2.25,2.25 0 0 1 297.9,432.559 L297.9,497.7 A2.25,2.25 0 0 1 295.65,499.95 L170.55,499.95 A2.25,2.25 0 0 1 168.3,497.7 L168.3,410.4 A2.25,2.25 0 0 1 170.55,408.15" fill="none" style="stroke:#000000;stroke-width:1.35;"/><line style="stroke:#000000;stroke-width:1.35;" x1="168.3" x2="224.8383" y1="430.309" y2="430.309"/><text fill="#000000" font-family="sans-serif" font-size="12.6" font-weight="bold" lengthAdjust="spacing" textLength="44.8383" x="171.9" y="423.5467">Service</text></g><!--cluster db--><g class="cluster" data-entity="db" data-source-line="25" data-uid="ent0015" id="cluster_db"><path d="M184.05,545.85 L203.1486,545.85 A3.375,3.375 0 0 1 205.3986,548.1 L211.6986,568.009 L389.25,568.009 A2.25,2.25 0 0 1 391.5,570.259 L391.5,635.4 A2.25,2.25 0 0 1 389.25,637.65 L184.05,637.65 A2.25,2.25 0 0 1 181.8,635.4 L181.8,548.1 A2.25,2.25 0 0 1 184.05,545.85" fill="none" style="stroke:#000000;stroke-width:1.35;"/><line style="stroke:#000000;stroke-width:1.35;" x1="181.8" x2="211.6986" y1="568.009" y2="568.009"/><text fill="#000000" font-family="sans-serif" font-size="12.6" font-weight="bold" lengthAdjust="spacing" textLength="18.1986" x="185.4" y="561.2467">DB</text></g><!--entity Router--><g class="entity" data-entity="Router" data-source-line="7" data-uid="ent0006" id="entity_Router"><rect fill="#F1F1F1" height="43.759" rx="2.25" ry="2.25" style="stroke:#181818;stroke-width:0.45;" width="73.8185" x="128.7" y="167.85"/><rect fill="#F1F1F1" height="9" style="stroke:#181818;stroke-width:0.45;" width="13.5" x="184.5185" y="172.35"/><rect fill="#F1F1F1" height="1.8" style="stroke:#181818;stroke-width:0.45;" width="3.6" x="182.7185" y="174.15"/><rect fill="#F1F1F1" height="1.8" style="stroke:#181818;stroke-width:0.45;" width="3.6" x="182.7185" y="177.75"/><text fill="#000000" font-family="sans-serif" font-size="12.6" lengthAdjust="spacing" textLength="37.8185" x="142.2" y="199.4467">Router</text></g><!--entity FhirClient--><g class="entity" data-entity="FhirClient" data-source-line="23" data-uid="ent0014" id="entity_FhirClient"><rect fill="#F1F1F1" height="43.759" rx="2.25" ry="2.25" style="stroke:#181818;stroke-width:0.45;" width="101.1103" x="55.8" y="579.15"/><rect fill="#F1F1F1" height="9" style="stroke:#181818;stroke-width:0.45;" width="13.5" x="138.9103" y="583.65"/><rect fill="#F1F1F1" height="1.8" style="stroke:#181818;stroke-width:0.45;" width="3.6" x="137.1103" y="585.45"/><rect fill="#F1F1F1" height="1.8" style="stroke:#181818;stroke-width:0.45;" width="3.6" x="137.1103" y="589.05"/><text fill="#000000" font-family="sans-serif" font-size="12.6" lengthAdjust="spacing" textLength="65.1103" x="69.3" y="610.7467">FHIR Client</text></g><!--entity Auth--><g class="entity" data-entity="Auth" data-source-line="11" data-uid="ent0008" id="entity_Auth"><rect fill="#F1F1F1" height="43.759" rx="2.25" ry="2.25" style="stroke:#181818;stroke-width:0.45;" width="61.9198" x="41.85" y="303.75"/><rect fill="#F1F1F1" height="9" style="stroke:#181818;stroke-width:0.45;" width="13.5" x="85.7698" y="308.25"/><rect fill="#F1F1F1" height="1.8" style="stroke:#181818;stroke-width:0.45;" width="3.6" x="83.9698" y="310.05"/><rect fill="#F1F1F1" height="1.8" style="stroke:#181818;stroke-width:0.45;" width="3.6" x="83.9698" y="313.65"/><text fill="#000000" font-family="sans-serif" font-size="12.6" lengthAdjust="spacing" textLength="25.9198" x="55.35" y="335.3467">Auth</text></g><!--entity Audit--><g class="entity" data-entity="Audit" data-source-line="12" data-uid="ent0009" id="entity_Audit"><rect fill="#F1F1F1" height="43.759" rx="2.25" ry="2.25" style="stroke:#181818;stroke-width:0.45;" width="64.7191" x="135.9" y="303.75"/><rect fill="#F1F1F1" height="9" style="stroke:#181818;stroke-width:0.45;" width="13.5" x="182.6191" y="308.25"/><rect fill="#F1F1F1" height="1.8" style="stroke:#181818;stroke-width:0.45;" width="3.6" x="180.8191" y="310.05"/><rect fill="#F1F1F1" height="1.8" style="stroke:#181818;stroke-width:0.45;" width="3.6" x="180.8191" y="313.65"/><text fill="#000000" font-family="sans-serif" font-size="12.6" lengthAdjust="spacing" textLength="28.7191" x="149.4" y="335.3467">Audit</text></g><!--entity Visit--><g class="entity" data-entity="Visit" data-source-line="16" data-uid="ent0011" id="entity_Visit"><rect fill="#F1F1F1" height="43.759" rx="2.25" ry="2.25" style="stroke:#181818;stroke-width:0.45;" width="124.9198" x="251.55" y="303.75"/><rect fill="#F1F1F1" height="9" style="stroke:#181818;stroke-width:0.45;" width="13.5" x="358.4698" y="308.25"/><rect fill="#F1F1F1" height="1.8" style="stroke:#181818;stroke-width:0.45;" width="3.6" x="356.6698" y="310.05"/><rect fill="#F1F1F1" height="1.8" style="stroke:#181818;stroke-width:0.45;" width="3.6" x="356.6698" y="313.65"/><text fill="#000000" font-family="sans-serif" font-size="12.6" lengthAdjust="spacing" textLength="88.9198" x="265.05" y="335.3467">visitController.js</text></g><!--entity VisitService--><g class="entity" data-entity="VisitService" data-source-line="20" data-uid="ent0013" id="entity_VisitService"><rect fill="#F1F1F1" height="43.759" rx="2.25" ry="2.25" style="stroke:#181818;stroke-width:0.45;" width="99.7137" x="183.15" y="441.45"/><rect fill="#F1F1F1" height="9" style="stroke:#181818;stroke-width:0.45;" width="13.5" x="264.8637" y="445.95"/><rect fill="#F1F1F1" height="1.8" style="stroke:#181818;stroke-width:0.45;" width="3.6" x="263.0637" y="447.75"/><rect fill="#F1F1F1" height="1.8" style="stroke:#181818;stroke-width:0.45;" width="3.6" x="263.0637" y="451.35"/><text fill="#000000" font-family="sans-serif" font-size="12.6" lengthAdjust="spacing" textLength="63.7137" x="196.65" y="473.0467">visitService</text></g><!--entity VisitModel--><g class="entity" data-entity="VisitModel" data-source-line="26" data-uid="ent0016" id="entity_VisitModel"><rect fill="#F1F1F1" height="43.759" rx="2.25" ry="2.25" style="stroke:#181818;stroke-width:0.45;" width="59.8034" x="196.2" y="579.15"/><rect fill="#F1F1F1" height="9" style="stroke:#181818;stroke-width:0.45;" width="13.5" x="238.0034" y="583.65"/><rect fill="#F1F1F1" height="1.8" style="stroke:#181818;stroke-width:0.45;" width="3.6" x="236.2034" y="585.45"/><rect fill="#F1F1F1" height="1.8" style="stroke:#181818;stroke-width:0.45;" width="3.6" x="236.2034" y="589.05"/><text fill="#000000" font-family="sans-serif" font-size="12.6" lengthAdjust="spacing" textLength="23.8034" x="209.7" y="610.7467">Visit</text></g><!--entity AuditModel--><g class="entity" data-entity="AuditModel" data-source-line="27" data-uid="ent0017" id="entity_AuditModel"><rect fill="#F1F1F1" height="43.759" rx="2.25" ry="2.25" style="stroke:#181818;stroke-width:0.45;" width="89.2178" x="287.55" y="579.15"/><rect fill="#F1F1F1" height="9" style="stroke:#181818;stroke-width:0.45;" width="13.5" x="358.7678" y="583.65"/><rect fill="#F1F1F1" height="1.8" style="stroke:#181818;stroke-width:0.45;" width="3.6" x="356.9678" y="585.45"/><rect fill="#F1F1F1" height="1.8" style="stroke:#181818;stroke-width:0.45;" width="3.6" x="356.9678" y="589.05"/><text fill="#000000" font-family="sans-serif" font-size="12.6" lengthAdjust="spacing" textLength="53.2178" x="301.05" y="610.7467">AuditTrail</text></g><!--entity Client--><g class="entity" data-entity="Client" data-source-line="1" data-uid="ent0002" id="entity_Client"><ellipse cx="165.5626" cy="12.6" fill="#F1F1F1" rx="7.2" ry="7.2" style="stroke:#181818;stroke-width:0.45;"/><path d="M165.5626,19.8 L165.5626,44.1 M153.8626,27 L177.2626,27 M165.5626,44.1 L153.8626,57.6 M165.5626,44.1 L177.2626,57.6" fill="none" style="stroke:#181818;stroke-width:0.45;"/><text fill="#000000" font-family="sans-serif" font-size="12.6" lengthAdjust="spacing" textLength="79.1253" x="126" y="72.5467">Schalter / Arzt</text></g><!--entity FHIR--><g class="entity" data-entity="FHIR" data-source-line="2" data-uid="ent0003" id="entity_FHIR"><path d="M70.8255,725.9509 C72.5766,719.2493 76.8729,719.2124 81.5489,722.9449 C84.3526,716.7535 90.7186,714.5494 95.2476,721.0884 C98.2125,714.9685 102.3033,714.3966 107.3767,718.6146 C112.4037,713.0968 116.5825,714.2065 119.027,721.0488 C124.2596,715.0584 129.4162,716.4955 132.9406,722.9575 C138.335,717.7285 143.6846,719.7838 145.307,726.7748 C151.0362,730.1769 151.4889,736.2858 145.927,740.209 C152.9713,745.7311 151.5463,750.761 144.9056,755.3607 C141.2919,761.0736 136.3924,761.7554 132.575,755.5718 C129.2917,762.3935 124.662,761.5957 120.0769,756.9963 C116.0572,764.0541 111.9408,765.0107 106.6678,758.2089 C103.1695,762.9998 98.7414,762.5598 95.6304,757.763 C91.0072,763.275 85.4146,763.6728 81.4944,756.9507 C77.0557,762.1543 73.1247,762.3289 69.8252,755.8161 C60.0237,756.1027 55.9092,749.7683 60.3911,740.9752 C56.7984,732.2938 61.6526,725.7666 70.8255,725.9509" fill="#F1F1F1" style="stroke:#181818;stroke-width:0.45;"/><text fill="#000000" font-family="sans-serif" font-size="12.6" lengthAdjust="spacing" textLength="62.3048" x="75.15" y="744.8467">HAPI FHIR</text></g><!--entity Mongo--><g class="entity" data-entity="Mongo" data-source-line="3" data-uid="ent0004" id="entity_Mongo"><path d="M242.1,727.2 C242.1,718.2 279.1147,718.2 279.1147,718.2 C279.1147,718.2 316.1294,718.2 316.1294,727.2 L316.1294,752.059 C316.1294,761.059 279.1147,761.059 279.1147,761.059 C279.1147,761.059 242.1,761.059 242.1,752.059 L242.1,727.2" fill="#F1F1F1" style="stroke:#181818;stroke-width:0.45;"/><path d="M242.1,727.2 C242.1,736.2 279.1147,736.2 279.1147,736.2 C279.1147,736.2 316.1294,736.2 316.1294,727.2" fill="none" style="stroke:#181818;stroke-width:0.45;"/><text fill="#000000" font-family="sans-serif" font-size="12.6" lengthAdjust="spacing" textLength="56.0294" x="251.1" y="753.3967">MongoDB</text></g><!--link Client to Router--><g class="link" data-entity-1="Client" data-entity-2="Router" data-source-line="31" data-uid="lnk18" id="link_Client_Router"><path d="M165.6,76.383 C165.6,104.679 165.6,138.231 165.6,162.126" fill="none" id="Client-to-Router" style="stroke:#181818;stroke-width:0.9;"/><polygon fill="#181818" points="165.6,167.526,169.2,159.426,165.6,163.026,162,159.426,165.6,167.526" style="stroke:#181818;stroke-width:0.9;"/><text fill="#000000" font-family="sans-serif" font-size="11.7" lengthAdjust="spacing" textLength="30.5468" x="166.5" y="116.5755">HTTP</text></g><!--link Router to Auth--><g class="link" data-entity-1="Router" data-entity-2="Auth" data-source-line="33" data-uid="lnk19" id="link_Router_Auth"><path d="M128.493,210.753 C117.36,218.304 106.029,227.808 98.1,238.95 C84.402,258.21 78.9119,279.5678 76.0409,298.0718" fill="none" id="Router-to-Auth" style="stroke:#181818;stroke-width:0.9;"/><polygon fill="#181818" points="75.213,303.408,80.0123,295.9557,75.9029,298.9612,72.8975,294.8518,75.213,303.408" style="stroke:#181818;stroke-width:0.9;"/><text fill="#000000" font-family="sans-serif" font-size="11.7" lengthAdjust="spacing" textLength="55.2437" x="99" y="252.4755">JWT verify</text></g><!--link Router to Audit--><g class="link" data-entity-1="Router" data-entity-2="Audit" data-source-line="34" data-uid="lnk20" id="link_Router_Audit"><path d="M164.151,212.121 C163.647,220.482 163.143,230.166 162.9,238.95 C162.279,261.072 163.6465,280.9702 165.3655,298.3492" fill="none" id="Router-to-Audit" style="stroke:#181818;stroke-width:0.9;"/><polygon fill="#181818" points="165.897,303.723,168.6822,295.308,165.4541,299.2449,161.5172,296.0167,165.897,303.723" style="stroke:#181818;stroke-width:0.9;"/><text fill="#000000" font-family="sans-serif" font-size="11.7" lengthAdjust="spacing" textLength="121.9359" x="163.8" y="252.4755">Aktion + ResourceType</text></g><!--link Router to Visit--><g class="link" data-entity-1="Router" data-entity-2="Visit" data-source-line="35" data-uid="lnk21" id="link_Router_Visit"><path d="M202.671,196.119 C230.382,201.996 267.237,214.146 289.8,238.95 C305.973,256.725 310.9612,279.1142 312.7792,298.2482" fill="none" id="Router-to-Visit" style="stroke:#181818;stroke-width:0.9;"/><polygon fill="#181818" points="313.29,303.624,316.1077,295.2198,312.8644,299.1442,308.94,295.9008,313.29,303.624" style="stroke:#181818;stroke-width:0.9;"/><text fill="#000000" font-family="sans-serif" font-size="11.7" lengthAdjust="spacing" textLength="40.9729" x="300.6" y="252.4755">Handler</text></g><!--link Visit to VisitService--><g class="link" data-entity-1="Visit" data-entity-2="VisitService" data-source-line="37" data-uid="lnk22" id="link_Visit_VisitService"><path d="M301.446,347.931 C286.317,373.32 263.9098,410.919 248.6998,436.425" fill="none" id="Visit-to-VisitService" style="stroke:#181818;stroke-width:0.9;"/><polygon fill="#181818" points="245.934,441.063,253.1746,435.9499,248.2388,437.198,246.9907,432.2622,245.934,441.063" style="stroke:#181818;stroke-width:0.9;"/><text fill="#000000" font-family="sans-serif" font-size="11.7" lengthAdjust="spacing" textLength="107.3052" x="283.5" y="390.1755">Use-Case ausf&#252;hren</text></g><!--link VisitService to FhirClient--><g class="link" data-entity-1="VisitService" data-entity-2="FhirClient" data-source-line="39" data-uid="lnk23" id="link_VisitService_FhirClient"><path d="M183.096,479.322 C164.574,487.089 144.828,498.402 131.4,514.35 C115.974,532.674 110.6472,554.6923 108.3252,573.6013" fill="none" id="VisitService-to-FhirClient" style="stroke:#181818;stroke-width:0.9;"/><polygon fill="#181818" points="107.667,578.961,112.2274,571.3602,108.2155,574.4945,105.0811,570.4826,107.667,578.961" style="stroke:#181818;stroke-width:0.9;"/><text fill="#000000" font-family="sans-serif" font-size="11.7" lengthAdjust="spacing" textLength="89.7038" x="132.3" y="527.8755">GET/POST FHIR</text></g><!--link VisitService to VisitModel--><g class="link" data-entity-1="VisitService" data-entity-2="VisitModel" data-source-line="40" data-uid="lnk24" id="link_VisitService_VisitModel"><path d="M231.975,485.631 C230.634,511.02 228.6784,547.8645 227.3284,573.3705" fill="none" id="VisitService-to-VisitModel" style="stroke:#181818;stroke-width:0.9;"/><polygon fill="#181818" points="227.043,578.763,231.0661,570.8646,227.2808,574.2693,223.8762,570.484,227.043,578.763" style="stroke:#181818;stroke-width:0.9;"/><text fill="#000000" font-family="sans-serif" font-size="11.7" lengthAdjust="spacing" textLength="88.4527" x="230.4" y="527.8755">lesen / speichern</text></g><!--link FhirClient to FHIR--><g class="link" data-entity-1="FhirClient" data-entity-2="FHIR" data-source-line="42" data-uid="lnk25" id="link_FhirClient_FHIR"><path d="M106.2,623.475 C106.2,649.179 106.2,686.646 106.2,712.278" fill="none" id="FhirClient-to-FHIR" style="stroke:#181818;stroke-width:0.9;"/><polygon fill="#181818" points="106.2,717.678,109.8,709.578,106.2,713.178,102.6,709.578,106.2,717.678" style="stroke:#181818;stroke-width:0.9;"/><text fill="#000000" font-family="sans-serif" font-size="11.7" lengthAdjust="spacing" textLength="31.2038" x="107.1" y="687.1755">REST</text></g><!--link VisitModel to Mongo--><g class="link" data-entity-1="VisitModel" data-entity-2="Mongo" data-source-line="45" data-uid="lnk26" id="link_VisitModel_Mongo"><path d="M234.198,623.475 C244.233,649.323 259.0552,687.5068 268.9822,713.0848" fill="none" id="VisitModel-to-Mongo" style="stroke:#181818;stroke-width:0.9;"/><polygon fill="#181818" points="270.936,718.119,271.3614,709.2652,269.3078,713.9239,264.6492,711.8703,270.936,718.119" style="stroke:#181818;stroke-width:0.9;"/></g><!--link AuditModel to Mongo--><g class="link" data-entity-1="AuditModel" data-entity-2="Mongo" data-source-line="46" data-uid="lnk27" id="link_AuditModel_Mongo"><path d="M323.802,623.475 C313.767,649.323 298.9448,687.5068 289.0178,713.0848" fill="none" id="AuditModel-to-Mongo" style="stroke:#181818;stroke-width:0.9;"/><polygon fill="#181818" points="287.064,718.119,293.3508,711.8703,288.6922,713.9239,286.6386,709.2652,287.064,718.119" style="stroke:#181818;stroke-width:0.9;"/></g><!--SRC=[PLBBJiCm4BpxArOvWL2X4hSUa49v5AIAgWtqW3WOPo464qUsKmI8F-F6Zx5-f4b5JkkPtHbdrbmuRI1RYOehXmQE83UVBWDkOQeareu9fTiIibc-k8ABsTKoSBvW9NVyaLk4RAxhPtrs6gXGCzPmySgVYSkRHad1dTGrx2sqSN0y7e_tGoznyCKOmFrIjsJ_uC5OCWzlHUQoB1M-SuFHOqrZGDzzthegJFcYWqhf4aOLWTyxMbDTEwELGXD_StliD3VIIjV3XoysgDrv-9_Q2ir6YdYjLE_e9AnNI40d9FHResiA6Z8VQaezXbn9avOmT4mvbu-TJv3j3UQwH3M8eZ1SgZwFZlvcv1_bOJGwIR7316P5iM0i7JtZeoNyUbt01ery-jWbIPFO_3Li-02MQ7Lh11OV3GuRmzsyFAzfbRJV26ofBhm9t5eSJVsxugrz-lsf3DQfk-lnGtqwD79vNXmjRbP5V9Z_UljSg5UXnPeUkcrGYWeDYG-qWhHVn0IMvwk29USuxCdullie1-0V]--></g></svg>