<?xml version="1.0" encoding="us-ascii" standalone="no"?><svg xmlns="http://www.w3.org/2000/svg" xmlns:xlink="http://www.w3.org/1999/xlink" contentStyleType="text/css" height="847px" preserveAspectRatio="none" style="width:466px;height:847px;background:#FFFFFF;" version="1.1" viewBox="0 0 466 847" width="466px" zoomAndPan="magnify"><defs/><g><!--cluster App--><g id="cluster_App"><path d="M8.5,147.5 L166.5,147.5 A3.75,3.75 0 0 1 169,150 L176,171.1094 L456.5,171.1094 A2.5,2.5 0 0 1 459,173.6094 L459,717 A2.5,2.5 0 0 1 456.5,719.5 L8.5,719.5 A2.5,2.5 0 0 1 6,717 L6,150 A2.5,2.5 0 0 1 8.5,147.5 " fill="none" style="stroke:#000000;stroke-width:1.5;"/><line style="stroke:#000000;stroke-width:1.5;" x1="6" x2="176" y1="171.1094" y2="171.1094"/><text fill="#000000" font-family="sans-serif" font-size="14" font-weight="bold" lengthAdjust="spacing" textLength="157" x="10" y="164.0332">Application (Port 3000)</text></g><!--cluster MW--><g id="cluster_MW"><path d="M228.5,295.5 L311.5,295.5 A3.75,3.75 0 0 1 314,298 L321,319.1094 L432.5,319.1094 A2.5,2.5 0 0 1 435,321.6094 L435,393 A2.5,2.5 0 0 1 432.5,395.5 L228.5,395.5 A2.5,2.5 0 0 1 226,393 L226,298 A2.5,2.5 0 0 1 228.5,295.5 " fill="none" style="stroke:#000000;stroke-width:1.5;"/><line style="stroke:#000000;stroke-width:1.5;" x1="226" x2="321" y1="319.1094" y2="319.1094"/><text fill="#000000" font-family="sans-serif" font-size="14" font-weight="bold" lengthAdjust="spacing" textLength="82" x="230" y="312.0332">Middleware</text></g><!--cluster Controller--><g id="cluster_Controller"><path d="M32.5,295.5 L104.5,295.5 A3.75,3.75 0 0 1 107,298 L114,319.1094 L199.5,319.1094 A2.5,2.5 0 0 1 202,321.6094 L202,393 A2.5,2.5 0 0 1 199.5,395.5 L32.5,395.5 A2.5,2.5 0 0 1 30,393 L30,298 A2.5,2.5 0 0 1 32.5,295.5 " fill="none" style="stroke:#000000;stroke-width:1.5;"/><line style="stroke:#000000;stroke-width:1.5;" x1="30" x2="114" y1="319.1094" y2="319.1094"/><text fill="#000000" font-family="sans-serif" font-size="14" font-weight="bold" lengthAdjust="spacing" textLength="71" x="34" y="312.0332">Controller</text></g><!--cluster Service--><g id="cluster_Service"><path d="M46.5,445.5 L101.5,445.5 A3.75,3.75 0 0 1 104,448 L111,469.1094 L185.5,469.1094 A2.5,2.5 0 0 1 188,471.6094 L188,543 A2.5,2.5 0 0 1 185.5,545.5 L46.5,545.5 A2.5,2.5 0 0 1 44,543 L44,448 A2.5,2.5 0 0 1 46.5,445.5 " fill="none" style="stroke:#000000;stroke-width:1.5;"/><line style="stroke:#000000;stroke-width:1.5;" x1="44" x2="111" y1="469.1094" y2="469.1094"/><text fill="#000000" font-family="sans-serif" font-size="14" font-weight="bold" lengthAdjust="spacing" textLength="54" x="48" y="462.0332">Service</text></g><!--cluster db--><g id="cluster_db"><path d="M163.5,595.5 L184.5,595.5 A3.75,3.75 0 0 1 187,598 L194,619.1094 L391.5,619.1094 A2.5,2.5 0 0 1 394,621.6094 L394,693 A2.5,2.5 0 0 1 391.5,695.5 L163.5,695.5 A2.5,2.5 0 0 1 161,693 L161,598 A2.5,2.5 0 0 1 163.5,595.5 " fill="none" style="stroke:#000000;stroke-width:1.5;"/><line style="stroke:#000000;stroke-width:1.5;" x1="161" x2="194" y1="619.1094" y2="619.1094"/><text fill="#000000" font-family="sans-serif" font-size="14" font-weight="bold" lengthAdjust="spacing" textLength="20" x="165" y="612.0332">DB</text></g><!--entity Router--><g id="elem_Router"><rect fill="#F1F1F1" height="47.6094" rx="2.5" ry="2.5" style="stroke:#181818;stroke-width:0.5;" width="83" x="162.5" y="183.5"/><rect fill="#F1F1F1" height="10" style="stroke:#181818;stroke-width:0.5;" width="15" x="225.5" y="188.5"/><rect fill="#F1F1F1" height="2" style="stroke:#181818;stroke-width:0.5;" width="4" x="223.5" y="190.5"/><rect fill="#F1F1F1" height="2" style="stroke:#181818;stroke-width:0.5;" width="4" x="223.5" y="194.5"/><text fill="#000000" font-family="sans-serif" font-size="14" lengthAdjust="spacing" textLength="43" x="177.5" y="218.0332">Router</text></g><!--entity FhirClient--><g id="elem_FhirClient"><rect fill="#F1F1F1" height="47.6094" rx="2.5" ry="2.5" style="stroke:#181818;stroke-width:0.5;" width="111" x="22.5" y="631.5"/><rect fill="#F1F1F1" height="10" style="stroke:#181818;stroke-width:0.5;" width="15" x="113.5" y="636.5"/><rect fill="#F1F1F1" height="2" style="stroke:#181818;stroke-width:0.5;" width="4" x="111.5" y="638.5"/><rect fill="#F1F1F1" height="2" style="stroke:#181818;stroke-width:0.5;" width="4" x="111.5" y="642.5"/><text fill="#000000" font-family="sans-serif" font-size="14" lengthAdjust="spacing" textLength="71" x="37.5" y="666.0332">FHIR Client</text></g><!--entity Auth--><g id="elem_Auth"><rect fill="#F1F1F1" height="47.6094" rx="2.5" ry="2.5" style="stroke:#181818;stroke-width:0.5;" width="69" x="349.5" y="331.5"/><rect fill="#F1F1F1" height="10" style="stroke:#181818;stroke-width:0.5;" width="15" x="398.5" y="336.5"/><rect fill="#F1F1F1" height="2" style="stroke:#181818;stroke-width:0.5;" width="4" x="396.5" y="338.5"/><rect fill="#F1F1F1" height="2" style="stroke:#181818;stroke-width:0.5;" width="4" x="396.5" y="342.5"/><text fill="#000000" font-family="sans-serif" font-size="14" lengthAdjust="spacing" textLength="29" x="364.5" y="366.0332">Auth</text></g><!--entity Audit--><g id="elem_Audit"><rect fill="#F1F1F1" height="47.6094" rx="2.5" ry="2.5" style="stroke:#181818;stroke-width:0.5;" width="72" x="242" y="331.5"/><rect fill="#F1F1F1" height="10" style="stroke:#181818;stroke-width:0.5;" width="15" x="294" y="336.5"/><rect fill="#F1F1F1" height="2" style="stroke:#181818;stroke-width:0.5;" width="4" x="292" y="338.5"/><rect fill="#F1F1F1" height="2" style="stroke:#181818;stroke-width:0.5;" width="4" x="292" y="342.5"/><text fill="#000000" font-family="sans-serif" font-size="14" lengthAdjust="spacing" textLength="32" x="257" y="366.0332">Audit</text></g><!--entity Visit--><g id="elem_Visit"><rect fill="#F1F1F1" height="47.6094" rx="2.5" ry="2.5" style="stroke:#181818;stroke-width:0.5;" width="140" x="46" y="331.5"/><rect fill="#F1F1F1" height="10" style="stroke:#181818;stroke-width:0.5;" width="15" x="166" y="336.5"/><rect fill="#F1F1F1" height="2" style="stroke:#181818;stroke-width:0.5;" width="4" x="164" y="338.5"/><rect fill="#F1F1F1" height="2" style="stroke:#181818;stroke-width:0.5;" width="4" x="164" y="342.5"/><text fill="#000000" font-family="sans-serif" font-size="14" lengthAdjust="spacing" textLength="100" x="61" y="366.0332">visitController.js</text></g><!--entity VisitService--><g id="elem_VisitService"><rect fill="#F1F1F1" height="47.6094" rx="2.5" ry="2.5" style="stroke:#181818;stroke-width:0.5;" width="111" x="60.5" y="481.5"/><rect fill="#F1F1F1" height="10" style="stroke:#181818;stroke-width:0.5;" width="15" x="151.5" y="486.5"/><rect fill="#F1F1F1" height="2" style="stroke:#181818;stroke-width:0.5;" width="4" x="149.5" y="488.5"/><rect fill="#F1F1F1" height="2" style="stroke:#181818;stroke-width:0.5;" width="4" x="149.5" y="492.5"/><text fill="#000000" font-family="sans-serif" font-size="14" lengthAdjust="spacing" textLength="71" x="75.5" y="516.0332">visitService</text></g><!--entity VisitModel--><g id="elem_VisitModel"><rect fill="#F1F1F1" height="47.6094" rx="2.5" ry="2.5" style="stroke:#181818;stroke-width:0.5;" width="66" x="177" y="631.5"/><rect fill="#F1F1F1" height="10" style="stroke:#181818;stroke-width:0.5;" width="15" x="223" y="636.5"/><rect fill="#F1F1F1" height="2" style="stroke:#181818;stroke-width:0.5;" width="4" x="221" y="638.5"/><rect fill="#F1F1F1" height="2" style="stroke:#181818;stroke-width:0.5;" width="4" x="221" y="642.5"/><text fill="#000000" font-family="sans-serif" font-size="14" lengthAdjust="spacing" textLength="26" x="192" y="666.0332">Visit</text></g><!--entity AuditModel--><g id="elem_AuditModel"><rect fill="#F1F1F1" height="47.6094" rx="2.5" ry="2.5" style="stroke:#181818;stroke-width:0.5;" width="100" x="278" y="631.5"/><rect fill="#F1F1F1" height="10" style="stroke:#181818;stroke-width:0.5;" width="15" x="358" y="636.5"/><rect fill="#F1F1F1" height="2" style="stroke:#181818;stroke-width:0.5;" width="4" x="356" y="638.5"/><rect fill="#F1F1F1" height="2" style="stroke:#181818;stroke-width:0.5;" width="4" x="356" y="642.5"/><text fill="#000000" font-family="sans-serif" font-size="14" lengthAdjust="spacing" textLength="60" x="293" y="666.0332">AuditTrail</text></g><!--entity Client--><g id="elem_Client"><ellipse cx="204" cy="14" fill="#F1F1F1" rx="8" ry="8" style="stroke:#181818;stroke-width:0.5;"/><path d="M204,22 L204,49 M191,30 L217,30 M204,49 L191,64 M204,49 L217,64 " fill="none" style="stroke:#181818;stroke-width:0.5;"/><text fill="#000000" font-family="sans-serif" font-size="14" lengthAdjust="spacing" textLength="88" x="160" y="80.0332">Schalter / Arzt</text></g><!--entity FHIR--><g id="elem_FHIR"><path d="M39.8371,792.7364 C44.0258,785.9865 48.3944,786.5375 53.4116,791.8002 C54.725,785.7944 60.488,784.126 65.0387,787.9841 C69.3234,781.4437 74.618,781.0373 78.5316,788.3457 C83.0579,781.5266 88.5037,781.5506 93.044,788.3307 C98.6113,782.7205 103.217,783.6731 105.4649,791.4179 C109.7401,785.8042 115.5633,784.8055 119.1112,792.182 C126.9532,796.6399 126.6446,803.4785 120.2832,808.9302 C127.1479,814.9173 126.3133,821.4142 117.796,825.0241 C114.9447,832.1509 109.929,832.9382 105.3148,826.6661 C103.0386,833.2254 97.5555,835.393 92.3246,829.8331 C90.0365,835.8326 83.6764,837.5695 79.2835,832.2603 C73.4615,837.1094 68.1052,836.1875 65.7555,828.5103 C60.411,834.2412 55.8488,834.1967 52.6098,826.4558 C47.0024,832.446 41.5094,832.1162 38.6072,823.8068 C30.6463,820.3091 28.6279,813.4135 36.766,808.0363 C30.3659,802.2616 31.6426,795.5816 39.8371,792.7364 " fill="#F1F1F1" style="stroke:#181818;stroke-width:0.5;"/><text fill="#000000" font-family="sans-serif" font-size="14" lengthAdjust="spacing" textLength="65" x="45.5" y="813.0332">HAPI FHIR</text></g><!--entity Mongo--><g id="elem_Mongo"><path d="M228,794 C228,784 269,784 269,784 C269,784 310,784 310,794 L310,820.6094 C310,830.6094 269,830.6094 269,830.6094 C269,830.6094 228,830.6094 228,820.6094 L228,794 " fill="#F1F1F1" style="stroke:#181818;stroke-width:0.5;"/><path d="M228,794 C228,804 269,804 269,804 C269,804 310,804 310,794 " fill="none" style="stroke:#181818;stroke-width:0.5;"/><text fill="#000000" font-family="sans-serif" font-size="14" lengthAdjust="spacing" textLength="62" x="238" y="822.5332">MongoDB</text></g><!--link Client to Router--><g id="link_Client_Router"><path d="M204,83.65 C204,114.53 204,151.01 204,177.07 " fill="none" id="Client-to-Router" style="stroke:#181818;stroke-width:1.0;"/><polygon fill="#181818" points="204,183.07,208,174.07,204,178.07,200,174.07,204,183.07" style="stroke:#181818;stroke-width:1.0;"/><text fill="#000000" font-family="sans-serif" font-size="13" lengthAdjust="spacing" textLength="32" x="205" y="127.9951">HTTP</text></g><!--link Router to Auth--><g id="link_Router_Auth"><path d="M245.69,215.49 C275.99,222.5 316.23,236.06 343,261.5 C362.83,280.34 372.1435,304.6574 377.6235,325.4874 " fill="none" id="Router-to-Auth" style="stroke:#181818;stroke-width:1.0;"/><polygon fill="#181818" points="379.15,331.29,380.7285,321.5685,377.8779,326.4545,372.9918,323.6039,379.15,331.29" style="stroke:#181818;stroke-width:1.0;"/><text fill="#000000" font-family="sans-serif" font-size="13" lengthAdjust="spacing" textLength="59" x="357" y="275.9951">JWT verify</text></g><!--link Router to Audit--><g id="link_Router_Audit"><path d="M198.11,231.78 C195.66,246.09 194.67,264.5 201,279.5 C209.78,300.3 222.7906,314.4322 239.0006,327.5122 " fill="none" id="Router-to-Audit" style="stroke:#181818;stroke-width:1.0;"/><polygon fill="#181818" points="243.67,331.28,239.1777,322.5153,239.7788,328.1402,234.154,328.7412,243.67,331.28" style="stroke:#181818;stroke-width:1.0;"/><text fill="#000000" font-family="sans-serif" font-size="13" lengthAdjust="spacing" textLength="136" x="202" y="275.9951">Aktion + ResourceType</text></g><!--link Router to Visit--><g id="link_Router_Visit"><path d="M169.87,231.57 C159.64,239.94 149.24,250.16 142,261.5 C128.38,282.84 122.7135,305.4331 119.5935,325.2431 " fill="none" id="Router-to-Visit" style="stroke:#181818;stroke-width:1.0;"/><polygon fill="#181818" points="118.66,331.17,124.0115,322.9019,119.4379,326.2309,116.1089,321.6573,118.66,331.17" style="stroke:#181818;stroke-width:1.0;"/><text fill="#000000" font-family="sans-serif" font-size="13" lengthAdjust="spacing" textLength="44" x="143" y="275.9951">Handler</text></g><!--link Visit to VisitService--><g id="link_Visit_VisitService"><path d="M116,379.62 C116,407.27 116,447.26 116,475.05 " fill="none" id="Visit-to-VisitService" style="stroke:#181818;stroke-width:1.0;"/><polygon fill="#181818" points="116,481.05,120,472.05,116,476.05,112,472.05,116,481.05" style="stroke:#181818;stroke-width:1.0;"/><text fill="#000000" font-family="sans-serif" font-size="13" lengthAdjust="spacing" textLength="117" x="117" y="425.9951">Use-Case ausf&#252;hren</text></g><!--link VisitService to FhirClient--><g id="link_VisitService_FhirClient"><path d="M90.55,529.58 C82.36,538.63 74.29,549.68 70,561.5 C61.76,584.2 64.3577,606.1609 69.1977,625.4209 " fill="none" id="VisitService-to-FhirClient" style="stroke:#181818;stroke-width:1.0;"/><polygon fill="#181818" points="70.66,631.24,72.3459,621.5365,69.4414,626.3908,64.5871,623.4863,70.66,631.24" style="stroke:#181818;stroke-width:1.0;"/><text fill="#000000" font-family="sans-serif" font-size="13" lengthAdjust="spacing" textLength="98" x="71" y="575.9951">GET/POST FHIR</text></g><!--link VisitService to VisitModel--><g id="link_VisitService_VisitModel"><path d="M145.16,529.5 C155.31,538.62 166.12,549.74 174,561.5 C188.56,583.21 196.807,605.9051 202.487,625.5951 " fill="none" id="VisitService-to-VisitModel" style="stroke:#181818;stroke-width:1.0;"/><polygon fill="#181818" points="204.15,631.36,205.4988,621.6039,202.7642,626.5559,197.8122,623.8213,204.15,631.36" style="stroke:#181818;stroke-width:1.0;"/><text fill="#000000" font-family="sans-serif" font-size="13" lengthAdjust="spacing" textLength="99" x="184" y="575.9951">lesen / speichern</text></g><!--link FhirClient to FHIR--><g id="link_FhirClient_FHIR"><path d="M78,679.61 C78,707.71 78,748.89 78,777.12 " fill="none" id="FhirClient-to-FHIR" style="stroke:#181818;stroke-width:1.0;"/><polygon fill="#181818" points="78,783.12,82,774.12,78,778.12,74,774.12,78,783.12" style="stroke:#181818;stroke-width:1.0;"/><text fill="#000000" font-family="sans-serif" font-size="13" lengthAdjust="spacing" textLength="34" x="79" y="749.9951">REST</text></g><!--link Audit to AuditModel--><g id="link_Audit_AuditModel"><path d="M281.92,379.88 C291.27,435.59 313.7781,569.7126 323.0981,625.3126 " fill="none" id="Audit-to-AuditModel" style="stroke:#181818;stroke-width:1.0;"/><polygon fill="#181818" points="324.09,631.23,326.5471,621.6926,323.2634,626.2988,318.6572,623.0151,324.09,631.23" style="stroke:#181818;stroke-width:1.0;"/></g><!--link VisitModel to Mongo--><g id="link_VisitModel_Mongo"><path d="M219.09,679.61 C230.21,707.88 246.7238,749.8564 257.8038,778.0264 " fill="none" id="VisitModel-to-Mongo" style="stroke:#181818;stroke-width:1.0;"/><polygon fill="#181818" points="260,783.61,260.4281,773.7705,258.1698,778.957,252.9833,776.6987,260,783.61" style="stroke:#181818;stroke-width:1.0;"/></g><!--link AuditModel to Mongo--><g id="link_AuditModel_Mongo"><path d="M318.91,679.61 C307.79,707.88 291.2762,749.8564 280.1962,778.0264 " fill="none" id="AuditModel-to-Mongo" style="stroke:#181818;stroke-width:1.0;"/><polygon fill="#181818" points="278,783.61,285.0167,776.6987,279.8302,778.957,277.5719,773.7705,278,783.61" style="stroke:#181818;stroke-width:1.0;"/></g><!--SRC=[PLBBJiCm4BpxArOvWL2X4hSUa49v5AIAgWtqW3WOPo464qUsKmI8F-F6Zx5-f4c5J-kPtLbxThbmsa2s4XLN3WqSGMu-NGRSmbH9h1qJIhSbPBDySGKNiwjbu7p0Ikxu8xS8sLpNp_hiD50XPgpXufK_4vStZPA2Ewbhs5jeu-1uF1xlXrpYu8inWFkbRgdzWmTZo3oy5PdBibJupWt67cig0phtUUkgKEM33YgbInX517xlQ4rrxOnM2atyvlRQQMwabQw73rziKBlpy3-r5PgD5F5PATxHILYla81EIEYtHjTaD6JUrEHwDBcI9WrXs37vN3vsVO9its2kIrG3Amh3fUhzwEXlHlsZF8n69ybscC2iA1QCfQjdlBM4NwyBsA2HJn-x96aIcx-62H_04grkZS3Yey5XOdYRb-SrZPBc6u4jrPatWLkBewdVAzxQfz-Voc2TihiSNzIxGoMNvyNHucPLnCNybzlxGhaABTQqwBP1AIeq93xG2j9-41DOdgyAnk87jr-Dzh61egVYqlS90_0F]--></g></svg>