<svg xmlns="http://www.w3.org/2000/svg" xmlns:xlink="http://www.w3.org/1999/xlink" contentStyleType="text/css" data-diagram-type="ACTIVITY" height="1929px" preserveAspectRatio="none" style="width:1106px;height:1929px;background:#FFFFFF;" version="1.1" viewBox="0 0 1106 1929" width="1106px" zoomAndPan="magnify"><defs/><g><ellipse cx="548.1577" cy="20" fill="#222222" rx="10" ry="10" style="stroke:#222222;stroke-width:1;"/><rect fill="#F1F1F1" height="35.9609" rx="12.5" ry="12.5" style="stroke:#181818;stroke-width:0.5;" width="152.0469" x="472.1343" y="50"/><text fill="#000000" font-family="sans-serif" font-size="12" lengthAdjust="spacing" textLength="132.0469" x="482.1343" y="72.9492">Patient betritt Arzt Praxis</text><rect fill="#F1F1F1" height="35.9609" rx="12.5" ry="12.5" style="stroke:#181818;stroke-width:0.5;" width="256.7949" x="419.7603" y="105.9609"/><text fill="#000000" font-family="sans-serif" font-size="12" lengthAdjust="spacing" textLength="236.7949" x="429.7603" y="128.9102">Schalter: Name / Versichertenkarte abgeben</text><polygon fill="#F1F1F1" points="532.5681,161.9219,563.7473,161.9219,575.7473,173.9219,563.7473,185.9219,532.5681,185.9219,520.5681,173.9219,532.5681,161.9219" style="stroke:#181818;stroke-width:0.5;"/><text fill="#000000" font-family="sans-serif" font-size="11" lengthAdjust="spacing" textLength="31.1792" x="532.5681" y="178.4766">Notfall</text><text fill="#000000" font-family="sans-serif" font-size="11" lengthAdjust="spacing" textLength="22.623" x="497.9451" y="171.1611">Nein</text><text fill="#000000" font-family="sans-serif" font-size="11" lengthAdjust="spacing" textLength="8.5615" x="575.7473" y="171.1611">ja</text><rect fill="#F1F1F1" height="51.9219" rx="12.5" ry="12.5" style="stroke:#181818;stroke-width:0.5;" width="342.4473" x="227.7949" y="195.9219"/><text fill="#000000" font-family="sans-serif" font-size="12" lengthAdjust="spacing" textLength="66.0293" x="237.7949" y="218.8711">suche via kv</text><text fill="#000000" font-family="sans-serif" font-size="12" lengthAdjust="spacing" textLength="322.4473" x="237.7949" y="234.832">GET /Patient?identifier=KVNR (Name, usw. als Tiebreaker!))</text><rect fill="#F1F1F1" height="67.8828" rx="12.5" ry="12.5" style="stroke:#181818;stroke-width:0.5;" width="214.1094" x="590.2422" y="195.9219"/><text fill="#000000" font-family="sans-serif" font-size="12" lengthAdjust="spacing" textLength="77.3848" x="600.2422" y="218.8711">suche ohne kv</text><text fill="#000000" font-family="sans-serif" font-size="12" lengthAdjust="spacing" textLength="184.1016" x="600.2422" y="234.832">(via Name und anderen Attributen)</text><text fill="#000000" font-family="sans-serif" font-size="12" lengthAdjust="spacing" textLength="194.1094" x="600.2422" y="250.793">GET /Patient?name=...&amp;birthdate=...</text><polygon fill="#F1F1F1" points="548.1577,269.8047,560.1577,281.8047,548.1577,293.8047,536.1577,281.8047,548.1577,269.8047" style="stroke:#181818;stroke-width:0.5;"/><rect fill="#F1F1F1" height="51.9219" rx="12.5" ry="12.5" style="stroke:#181818;stroke-width:0.5;" width="126.7578" x="484.7788" y="363.1201"/><text fill="#000000" font-family="sans-serif" font-size="12" lengthAdjust="spacing" textLength="106.7578" x="494.7788" y="386.0693">Patient neu anlegen</text><text fill="#000000" font-family="sans-serif" font-size="12" lengthAdjust="spacing" textLength="76.6992" x="494.7788" y="402.0303">POST /Patient</text><polygon fill="#F1F1F1" points="522.1589,313.8047,574.1565,313.8047,586.1565,325.8047,574.1565,337.8047,522.1589,337.8047,510.1589,325.8047,522.1589,313.8047" style="stroke:#181818;stroke-width:0.5;"/><text fill="#000000" font-family="sans-serif" font-size="11" lengthAdjust="spacing" textLength="20.7969" x="552.1577" y="349.6748">nein</text><text fill="#000000" font-family="sans-serif" font-size="11" lengthAdjust="spacing" textLength="51.9976" x="522.1589" y="330.3594">gefunden?</text><text fill="#000000" font-family="sans-serif" font-size="11" lengthAdjust="spacing" textLength="8.5615" x="586.1565" y="323.0439">ja</text><polygon fill="#F1F1F1" points="548.1577,435.042,560.1577,447.042,548.1577,459.042,536.1577,447.042,548.1577,435.042" style="stroke:#181818;stroke-width:0.5;"/><path d="M597.8276,483.377 L597.8276,493.0225 L577.8276,497.0225 L597.8276,501.0225 L597.8276,510.668 A0,0 0 0 0 597.8276,510.668 L1006.1172,510.668 A0,0 0 0 0 1006.1172,510.668 L1006.1172,493.377 L996.1172,483.377 L597.8276,483.377 A0,0 0 0 0 597.8276,483.377" fill="#FEFFDD" style="stroke:#181818;stroke-width:0.5;"/><path d="M996.1172,483.377 L996.1172,493.377 L1006.1172,493.377 L996.1172,483.377" fill="#FEFFDD" style="stroke:#181818;stroke-width:0.5;"/><text fill="#000000" font-family="sans-serif" font-size="13" lengthAdjust="spacing" textLength="387.2896" x="603.8276" y="502.4053">Patient existiert zu diesem Zeitpunk 100% auf fhir (Source of Truth)</text><rect fill="#F1F1F1" height="35.9609" rx="12.5" ry="12.5" style="stroke:#181818;stroke-width:0.5;" width="59.3398" x="518.4878" y="479.042"/><text fill="#000000" font-family="sans-serif" font-size="12" lengthAdjust="spacing" textLength="39.3398" x="528.4878" y="501.9912">Wichtig</text><rect fill="#F1F1F1" height="51.9219" rx="12.5" ry="12.5" style="stroke:#181818;stroke-width:0.5;" width="277.4375" x="409.439" y="535.0029"/><text fill="#000000" font-family="sans-serif" font-size="12" lengthAdjust="spacing" textLength="82.0547" x="419.439" y="557.9521">Consent pr&#252;fen</text><text fill="#000000" font-family="sans-serif" font-size="12" lengthAdjust="spacing" textLength="257.4375" x="419.439" y="573.9131">GET /Consent?patient=...&amp;status=active (FHIR))</text><path d="M10,596.9248 L10,624.2158 L431.3086,624.2158 L431.3086,606.9248 L421.3086,596.9248 L10,596.9248" fill="#FEFFDD" style="stroke:#181818;stroke-width:0.5;"/><path d="M421.3086,596.9248 L421.3086,606.9248 L431.3086,606.9248 L421.3086,596.9248" fill="#FEFFDD" style="stroke:#181818;stroke-width:0.5;"/><text fill="#000000" font-family="sans-serif" font-size="13" lengthAdjust="spacing" textLength="400.3086" x="16" y="615.9531">lokale DSGVO muss nicht aktuell sein, deshalb wieder bei fhir fragen!</text><rect fill="#F1F1F1" height="35.9609" rx="12.5" ry="12.5" style="stroke:#181818;stroke-width:0.5;" width="182.7559" x="456.7798" y="673.5313"/><text fill="#000000" font-family="sans-serif" font-size="12" lengthAdjust="spacing" textLength="162.7559" x="466.7798" y="696.4805">DSGVO vom Patienten hohlen</text><polygon fill="#F1F1F1" points="521.5708,729.4922,574.7446,729.4922,586.7446,741.4922,574.7446,753.4922,521.5708,753.4922,509.5708,741.4922,521.5708,729.4922" style="stroke:#181818;stroke-width:0.5;"/><text fill="#000000" font-family="sans-serif" font-size="11" lengthAdjust="spacing" textLength="53.1738" x="521.5708" y="746.0469">stimmt zu?</text><text fill="#000000" font-family="sans-serif" font-size="11" lengthAdjust="spacing" textLength="8.5615" x="501.0093" y="738.7314">ja</text><text fill="#000000" font-family="sans-serif" font-size="11" lengthAdjust="spacing" textLength="20.7969" x="586.7446" y="738.7314">nein</text><rect fill="#F1F1F1" height="51.9219" rx="12.5" ry="12.5" style="stroke:#181818;stroke-width:0.5;" width="289.4375" x="264.9741" y="763.4922"/><text fill="#000000" font-family="sans-serif" font-size="12" lengthAdjust="spacing" textLength="159.7207" x="274.9741" y="786.4414">Consent (permit) vormerken =</text><text fill="#000000" font-family="sans-serif" font-size="12" lengthAdjust="spacing" textLength="269.4375" x="274.9741" y="802.4023">wird mit dem Aufnahme-Bundle geschickt (sp&#228;ter))</text><rect fill="#F1F1F1" height="83.8438" rx="12.5" ry="12.5" style="stroke:#181818;stroke-width:0.5;" width="224.4219" x="574.4116" y="763.4922"/><text fill="#000000" font-family="sans-serif" font-size="12" lengthAdjust="spacing" textLength="128.0859" x="584.4116" y="786.4414">Consent (deny) anlegen</text><text fill="#000000" font-family="sans-serif" font-size="12" lengthAdjust="spacing" textLength="84.0352" x="584.4116" y="802.4023">POST /Consent</text><text fill="#000000" font-family="sans-serif" font-size="12" lengthAdjust="spacing" textLength="204.4219" x="584.4116" y="818.3633">+ L&#246;sch-Vormerkung lokal (MongoDB)</text><text fill="#000000" font-family="sans-serif" font-size="12" lengthAdjust="spacing" textLength="74.0332" x="584.4116" y="834.3242">(Zusatzdaten)</text><polygon fill="#F1F1F1" points="548.1577,853.3359,560.1577,865.3359,548.1577,877.3359,536.1577,865.3359,548.1577,853.3359" style="stroke:#181818;stroke-width:0.5;"/><polygon fill="#F1F1F1" points="443.3086,624.2158,653.0068,624.2158,665.0068,636.2158,653.0068,648.2158,443.3086,648.2158,431.3086,636.2158,443.3086,624.2158" style="stroke:#181818;stroke-width:0.5;"/><text fill="#000000" font-family="sans-serif" font-size="11" lengthAdjust="spacing" textLength="20.7969" x="552.1577" y="660.0859">nein</text><text fill="#000000" font-family="sans-serif" font-size="11" lengthAdjust="spacing" textLength="209.6982" x="443.3086" y="640.7705">g&#252;ltiges DSGVO-Einverst&#228;ndnis auf FHIR?</text><text fill="#000000" font-family="sans-serif" font-size="11" lengthAdjust="spacing" textLength="8.5615" x="665.0068" y="633.4551">ja</text><polygon fill="#F1F1F1" points="548.1577,897.3359,560.1577,909.3359,548.1577,921.3359,536.1577,909.3359,548.1577,897.3359" style="stroke:#181818;stroke-width:0.5;"/><path d="M597.8276,945.6709 L597.8276,955.3164 L577.8276,959.3164 L597.8276,963.3164 L597.8276,972.9619 A0,0 0 0 0 597.8276,972.9619 L1017.6763,972.9619 A0,0 0 0 0 1017.6763,972.9619 L1017.6763,955.6709 L1007.6763,945.6709 L597.8276,945.6709 A0,0 0 0 0 597.8276,945.6709" fill="#FEFFDD" style="stroke:#181818;stroke-width:0.5;"/><path d="M1007.6763,945.6709 L1007.6763,955.6709 L1017.6763,955.6709 L1007.6763,945.6709" fill="#FEFFDD" style="stroke:#181818;stroke-width:0.5;"/><text fill="#000000" font-family="sans-serif" font-size="13" lengthAdjust="spacing" textLength="398.8486" x="603.8276" y="964.6992">Consent existiert zu diesem Zeitpunkt 100% auf fhir (Source of Truth)</text><rect fill="#F1F1F1" height="35.9609" rx="12.5" ry="12.5" style="stroke:#181818;stroke-width:0.5;" width="59.3398" x="518.4878" y="941.3359"/><text fill="#000000" font-family="sans-serif" font-size="12" lengthAdjust="spacing" textLength="39.3398" x="528.4878" y="964.2852">Wichtig</text><polygon fill="#F1F1F1" points="518.4958,997.2969,577.8196,997.2969,589.8196,1009.2969,577.8196,1021.2969,518.4958,1021.2969,506.4958,1009.2969,518.4958,997.2969" style="stroke:#181818;stroke-width:0.5;"/><text fill="#000000" font-family="sans-serif" font-size="11" lengthAdjust="spacing" textLength="59.3237" x="518.4958" y="1013.8516">Neupatient?</text><text fill="#000000" font-family="sans-serif" font-size="11" lengthAdjust="spacing" textLength="8.5615" x="497.9343" y="1006.5361">ja</text><text fill="#000000" font-family="sans-serif" font-size="11" lengthAdjust="spacing" textLength="20.7969" x="589.8196" y="1006.5361">nein</text><rect fill="#F1F1F1" height="51.9219" rx="12.5" ry="12.5" style="stroke:#181818;stroke-width:0.5;" width="284.7969" x="285.0454" y="1031.2969"/><text fill="#000000" font-family="sans-serif" font-size="12" lengthAdjust="spacing" textLength="90.7383" x="295.0454" y="1054.2461">Anamnesebogen</text><text fill="#000000" font-family="sans-serif" font-size="12" lengthAdjust="spacing" textLength="264.7969" x="295.0454" y="1070.207">(Vorerkrankungen, Dauermedikamente, Allergien)</text><rect fill="#F1F1F1" height="67.8828" rx="12.5" ry="12.5" style="stroke:#181818;stroke-width:0.5;" width="158.0586" x="589.8423" y="1031.2969"/><text fill="#000000" font-family="sans-serif" font-size="12" lengthAdjust="spacing" textLength="138.0586" x="599.8423" y="1054.2461">Kurz-Update am Schalter:</text><text fill="#000000" font-family="sans-serif" font-size="12" lengthAdjust="spacing" textLength="133.418" x="599.8423" y="1070.207">hat sich etwas ge&#228;ndert?</text><text fill="#000000" font-family="sans-serif" font-size="12" lengthAdjust="spacing" textLength="133.3887" x="599.8423" y="1086.168">(Medikamente, Allergien)</text><polygon fill="#F1F1F1" points="548.1577,1105.1797,560.1577,1117.1797,548.1577,1129.1797,536.1577,1117.1797,548.1577,1105.1797" style="stroke:#181818;stroke-width:0.5;"/><path d="M597.8276,1144.8691 L597.8276,1163.1602 L577.8276,1167.1602 L597.8276,1171.1602 L597.8276,1189.4512 A0,0 0 0 0 597.8276,1189.4512 L1067.5879,1189.4512 A0,0 0 0 0 1067.5879,1189.4512 L1067.5879,1154.8691 L1057.5879,1144.8691 L597.8276,1144.8691 A0,0 0 0 0 597.8276,1144.8691" fill="#FEFFDD" style="stroke:#181818;stroke-width:0.5;"/><path d="M1057.5879,1144.8691 L1057.5879,1154.8691 L1067.5879,1154.8691 L1057.5879,1144.8691" fill="#FEFFDD" style="stroke:#181818;stroke-width:0.5;"/><text fill="#000000" font-family="sans-serif" font-size="13" lengthAdjust="spacing" textLength="393.5293" x="603.8276" y="1163.8975">K&#246;nnen wir einfach gleich behandeln = einfaches updates der Daten</text><text fill="#000000" font-family="sans-serif" font-size="13" lengthAdjust="spacing" textLength="448.7603" x="603.8276" y="1181.1885">Wir haben zu diesem Zeitpunkt auch 100% die neuen Daten zum aktualiseren</text><rect fill="#F1F1F1" height="35.9609" rx="12.5" ry="12.5" style="stroke:#181818;stroke-width:0.5;" width="59.3398" x="518.4878" y="1149.1797"/><text fill="#000000" font-family="sans-serif" font-size="12" lengthAdjust="spacing" textLength="39.3398" x="528.4878" y="1172.1289">Wichtig</text><polygon fill="#F1F1F1" points="524.6135,1209.4512,571.7019,1209.4512,583.7019,1221.4512,571.7019,1233.4512,524.6135,1233.4512,512.6135,1221.4512,524.6135,1209.4512" style="stroke:#181818;stroke-width:0.5;"/><text fill="#000000" font-family="sans-serif" font-size="11" lengthAdjust="spacing" textLength="47.0884" x="524.6135" y="1226.0059">Consent?</text><text fill="#000000" font-family="sans-serif" font-size="11" lengthAdjust="spacing" textLength="8.5615" x="504.052" y="1218.6904">ja</text><text fill="#000000" font-family="sans-serif" font-size="11" lengthAdjust="spacing" textLength="20.7969" x="583.7019" y="1218.6904">nein</text><rect fill="#F1F1F1" height="147.6875" rx="12.5" ry="12.5" style="stroke:#181818;stroke-width:0.5;" width="259.1152" x="247.938" y="1243.4512"/><text fill="#000000" font-family="sans-serif" font-size="12" lengthAdjust="spacing" textLength="150.0762" x="257.938" y="1266.4004">Aufnahme-Bundle zu FHIR?</text><text fill="#000000" font-family="sans-serif" font-size="12" lengthAdjust="spacing" textLength="81.3867" x="257.938" y="1282.3613">Vorher ziehen?</text><text fill="#000000" font-family="sans-serif" font-size="12" lengthAdjust="spacing" textLength="220.7578" x="257.938" y="1298.3223">Dauermedikation im System aktualisieren</text><text fill="#000000" font-family="sans-serif" font-size="12" lengthAdjust="spacing" textLength="163.7402" x="257.938" y="1314.2832">POST / (Bundle = transaction):</text><text fill="#000000" font-family="sans-serif" font-size="12" lengthAdjust="spacing" textLength="205.1191" x="257.938" y="1330.2441">Patient + Condition (Vorerkrankungen)</text><text fill="#000000" font-family="sans-serif" font-size="12" lengthAdjust="spacing" textLength="239.1152" x="257.938" y="1346.2051">+ MedicationStatement (Dauermedikamente)</text><text fill="#000000" font-family="sans-serif" font-size="12" lengthAdjust="spacing" textLength="109.7051" x="257.938" y="1362.166">+ Consent (DSGVO)</text><text fill="#000000" font-family="sans-serif" font-size="12" lengthAdjust="spacing" textLength="74.3848" x="257.938" y="1378.127">+ Provenance</text><rect fill="#F1F1F1" height="83.8438" rx="12.5" ry="12.5" style="stroke:#181818;stroke-width:0.5;" width="383.5332" x="527.0532" y="1243.4512"/><text fill="#000000" font-family="sans-serif" font-size="12" lengthAdjust="spacing" textLength="182.1094" x="537.0532" y="1266.4004">Anamnese bleibt lokal / auf Papier</text><text fill="#000000" font-family="sans-serif" font-size="12" lengthAdjust="spacing" textLength="363.5332" x="537.0532" y="1282.3613">Ablehnung Consent zu FHIR (bereits vorhanden)) f&#252;r dokumentation</text><text fill="#000000" font-family="sans-serif" font-size="12" lengthAdjust="spacing" textLength="181.4355" x="537.0532" y="1298.3223">keine klinischen Daten (Condition,</text><text fill="#000000" font-family="sans-serif" font-size="12" lengthAdjust="spacing" textLength="116.7246" x="537.0532" y="1314.2832">MedicationStatement)</text><polygon fill="#F1F1F1" points="548.1577,1397.1387,560.1577,1409.1387,548.1577,1421.1387,536.1577,1409.1387,548.1577,1397.1387" style="stroke:#181818;stroke-width:0.5;"/><path d="M239.3101,1445.4736 L239.3101,1472.7646 A0,0 0 0 0 239.3101,1472.7646 L436.4575,1472.7646 A0,0 0 0 0 436.4575,1472.7646 L436.4575,1463.4736 L456.4575,1459.1191 L436.4575,1455.4736 L436.4575,1455.4736 L426.4575,1445.4736 L239.3101,1445.4736 A0,0 0 0 0 239.3101,1445.4736" fill="#FEFFDD" style="stroke:#181818;stroke-width:0.5;"/><path d="M426.4575,1445.4736 L426.4575,1455.4736 L436.4575,1455.4736 L426.4575,1445.4736" fill="#FEFFDD" style="stroke:#181818;stroke-width:0.5;"/><text fill="#000000" font-family="sans-serif" font-size="13" lengthAdjust="spacing" textLength="176.1475" x="245.3101" y="1464.502">vieles hiervon ist nur "gespielt"</text><rect fill="#F1F1F1" height="35.9609" rx="12.5" ry="12.5" style="stroke:#181818;stroke-width:0.5;" width="183.4004" x="456.4575" y="1441.1387"/><text fill="#000000" font-family="sans-serif" font-size="12" lengthAdjust="spacing" textLength="163.4004" x="466.4575" y="1464.0879">Behandlungszimmer beim Arzt</text><path d="M720.23,1509.415 L720.23,1519.0605 L700.23,1523.0605 L720.23,1527.0605 L720.23,1536.7061 A0,0 0 0 0 720.23,1536.7061 L926.1753,1536.7061 A0,0 0 0 0 926.1753,1536.7061 L926.1753,1519.415 L916.1753,1509.415 L720.23,1509.415 A0,0 0 0 0 720.23,1509.415" fill="#FEFFDD" style="stroke:#181818;stroke-width:0.5;"/><path d="M916.1753,1509.415 L916.1753,1519.415 L926.1753,1519.415 L916.1753,1509.415" fill="#FEFFDD" style="stroke:#181818;stroke-width:0.5;"/><text fill="#000000" font-family="sans-serif" font-size="13" lengthAdjust="spacing" textLength="184.9453" x="726.23" y="1528.4434">Dummy GET f&#252;r unser Szenario</text><rect fill="#F1F1F1" height="51.9219" rx="12.5" ry="12.5" style="stroke:#181818;stroke-width:0.5;" width="304.1445" x="396.0854" y="1497.0996"/><text fill="#000000" font-family="sans-serif" font-size="12" lengthAdjust="spacing" textLength="174.75" x="406.0854" y="1520.0488">Arzt: Medikationshistorie abrufen</text><text fill="#000000" font-family="sans-serif" font-size="12" lengthAdjust="spacing" textLength="284.1445" x="406.0854" y="1536.0098">GET /MedicationStatement?subject=...&amp;status=active</text><path d="M697.7153,1573.3564 L697.7153,1583.002 L677.7153,1587.002 L697.7153,1591.002 L697.7153,1600.6475 A0,0 0 0 0 697.7153,1600.6475 L1050.4121,1600.6475 A0,0 0 0 0 1050.4121,1600.6475 L1050.4121,1583.3564 L1040.4121,1573.3564 L697.7153,1573.3564 A0,0 0 0 0 697.7153,1573.3564" fill="#FEFFDD" style="stroke:#181818;stroke-width:0.5;"/><path d="M1040.4121,1573.3564 L1040.4121,1583.3564 L1050.4121,1583.3564 L1040.4121,1573.3564" fill="#FEFFDD" style="stroke:#181818;stroke-width:0.5;"/><text fill="#000000" font-family="sans-serif" font-size="13" lengthAdjust="spacing" textLength="331.6968" x="703.7153" y="1592.3848">Es wird einfach random eine bei uns aus der DB gezogen</text><rect fill="#F1F1F1" height="35.9609" rx="12.5" ry="12.5" style="stroke:#181818;stroke-width:0.5;" width="259.1152" x="418.6001" y="1569.0215"/><text fill="#000000" font-family="sans-serif" font-size="12" lengthAdjust="spacing" textLength="239.1152" x="428.6001" y="1591.9707">Arzt: Diagnose + Schmerzmedikation w&#228;hlen</text><rect fill="#F1F1F1" height="51.9219" rx="12.5" ry="12.5" style="stroke:#181818;stroke-width:0.5;" width="142.7305" x="476.7925" y="1624.9824"/><text fill="#000000" font-family="sans-serif" font-size="12" lengthAdjust="spacing" textLength="122.7305" x="486.7925" y="1647.9316">Verordnung vormerken</text><text fill="#000000" font-family="sans-serif" font-size="12" lengthAdjust="spacing" textLength="102.041" x="486.7925" y="1663.8926">(lokal in MongoDB)</text><rect fill="#F1F1F1" height="67.8828" rx="12.5" ry="12.5" style="stroke:#181818;stroke-width:0.5;" width="241.127" x="427.5942" y="1696.9043"/><text fill="#000000" font-family="sans-serif" font-size="12" lengthAdjust="spacing" textLength="113.4082" x="440.9282" y="1719.8535">Vorgang abschlie&#223;en</text><text fill="#000000" font-family="sans-serif" font-size="12" lengthAdjust="spacing" textLength="150.0645" x="437.5942" y="1735.8145">POST / (Bundle transaction)</text><text fill="#000000" font-family="sans-serif" font-size="12" lengthAdjust="spacing" textLength="221.127" x="437.5942" y="1751.7754">MedicationRequest + Provenance atomar</text><path d="M800.6353,1789.1221 L800.6353,1798.7676 L780.6353,1802.7676 L800.6353,1806.7676 L800.6353,1816.4131 A0,0 0 0 0 800.6353,1816.4131 L1094.0449,1816.4131 A0,0 0 0 0 1094.0449,1816.4131 L1094.0449,1799.1221 L1084.0449,1789.1221 L800.6353,1789.1221 A0,0 0 0 0 800.6353,1789.1221" fill="#FEFFDD" style="stroke:#181818;stroke-width:0.5;"/><path d="M1084.0449,1789.1221 L1084.0449,1799.1221 L1094.0449,1799.1221 L1084.0449,1789.1221" fill="#FEFFDD" style="stroke:#181818;stroke-width:0.5;"/><text fill="#000000" font-family="sans-serif" font-size="13" lengthAdjust="spacing" textLength="272.4097" x="806.6353" y="1808.1504">Durch mongoDB geregelt (expireAfterSeconds)</text><rect fill="#F1F1F1" height="35.9609" rx="12.5" ry="12.5" style="stroke:#181818;stroke-width:0.5;" width="464.9551" x="315.6802" y="1784.7871"/><text fill="#000000" font-family="sans-serif" font-size="12" lengthAdjust="spacing" textLength="444.9551" x="325.6802" y="1807.7363">Behandlungsdokumentation bleibt gespeichert (Aufbewahrungspflicht von 10 Jahre)</text><rect fill="#F1F1F1" height="35.9609" rx="12.5" ry="12.5" style="stroke:#181818;stroke-width:0.5;" width="191.4219" x="452.4468" y="1840.748"/><text fill="#000000" font-family="sans-serif" font-size="12" lengthAdjust="spacing" textLength="171.4219" x="462.4468" y="1863.6973">Medikation erfolgreich verordnet</text><ellipse cx="548.1577" cy="1907.709" fill="none" rx="11" ry="11" style="stroke:#222222;stroke-width:1;"/><ellipse cx="548.1577" cy="1907.709" fill="#222222" rx="6" ry="6" style="stroke:#222222;stroke-width:1;"/><line style="stroke:#181818;stroke-width:1;" x1="548.1577" x2="548.1577" y1="30" y2="50"/><polygon fill="#181818" points="544.1577,40,548.1577,50,552.1577,40,548.1577,44" style="stroke:#181818;stroke-width:1;"/><line style="stroke:#181818;stroke-width:1;" x1="548.1577" x2="548.1577" y1="85.9609" y2="105.9609"/><polygon fill="#181818" points="544.1577,95.9609,548.1577,105.9609,552.1577,95.9609,548.1577,99.9609" style="stroke:#181818;stroke-width:1;"/><line style="stroke:#181818;stroke-width:1;" x1="520.5681" x2="399.0186" y1="173.9219" y2="173.9219"/><line style="stroke:#181818;stroke-width:1;" x1="399.0186" x2="399.0186" y1="173.9219" y2="195.9219"/><polygon fill="#181818" points="395.0186,185.9219,399.0186,195.9219,403.0186,185.9219,399.0186,189.9219" style="stroke:#181818;stroke-width:1;"/><line style="stroke:#181818;stroke-width:1;" x1="575.7473" x2="697.2969" y1="173.9219" y2="173.9219"/><line style="stroke:#181818;stroke-width:1;" x1="697.2969" x2="697.2969" y1="173.9219" y2="195.9219"/><polygon fill="#181818" points="693.2969,185.9219,697.2969,195.9219,701.2969,185.9219,697.2969,189.9219" style="stroke:#181818;stroke-width:1;"/><line style="stroke:#181818;stroke-width:1;" x1="399.0186" x2="399.0186" y1="247.8438" y2="281.8047"/><line style="stroke:#181818;stroke-width:1;" x1="399.0186" x2="536.1577" y1="281.8047" y2="281.8047"/><polygon fill="#181818" points="526.1577,277.8047,536.1577,281.8047,526.1577,285.8047,530.1577,281.8047" style="stroke:#181818;stroke-width:1;"/><line style="stroke:#181818;stroke-width:1;" x1="697.2969" x2="697.2969" y1="263.8047" y2="281.8047"/><line style="stroke:#181818;stroke-width:1;" x1="697.2969" x2="560.1577" y1="281.8047" y2="281.8047"/><polygon fill="#181818" points="570.1577,277.8047,560.1577,281.8047,570.1577,285.8047,566.1577,281.8047" style="stroke:#181818;stroke-width:1;"/><line style="stroke:#181818;stroke-width:1;" x1="548.1577" x2="548.1577" y1="141.9219" y2="161.9219"/><polygon fill="#181818" points="544.1577,151.9219,548.1577,161.9219,552.1577,151.9219,548.1577,155.9219" style="stroke:#181818;stroke-width:1;"/><line style="stroke:#181818;stroke-width:1;" x1="548.1577" x2="548.1577" y1="337.8047" y2="363.1201"/><polygon fill="#181818" points="544.1577,353.1201,548.1577,363.1201,552.1577,353.1201,548.1577,357.1201" style="stroke:#181818;stroke-width:1;"/><line style="stroke:#181818;stroke-width:1;" x1="586.1565" x2="621.5366" y1="325.8047" y2="325.8047"/><polygon fill="#181818" points="617.5366,379.0811,621.5366,389.0811,625.5366,379.0811,621.5366,383.0811" style="stroke:#181818;stroke-width:1;"/><line style="stroke:#181818;stroke-width:1;" x1="621.5366" x2="621.5366" y1="325.8047" y2="447.042"/><line style="stroke:#181818;stroke-width:1;" x1="621.5366" x2="560.1577" y1="447.042" y2="447.042"/><polygon fill="#181818" points="570.1577,443.042,560.1577,447.042,570.1577,451.042,566.1577,447.042" style="stroke:#181818;stroke-width:1;"/><line style="stroke:#181818;stroke-width:1;" x1="548.1577" x2="548.1577" y1="415.042" y2="435.042"/><polygon fill="#181818" points="544.1577,425.042,548.1577,435.042,552.1577,425.042,548.1577,429.042" style="stroke:#181818;stroke-width:1;"/><line style="stroke:#181818;stroke-width:1;" x1="548.1577" x2="548.1577" y1="293.8047" y2="313.8047"/><polygon fill="#181818" points="544.1577,303.8047,548.1577,313.8047,552.1577,303.8047,548.1577,307.8047" style="stroke:#181818;stroke-width:1;"/><line style="stroke:#181818;stroke-width:1;" x1="548.1577" x2="548.1577" y1="459.042" y2="479.042"/><polygon fill="#181818" points="544.1577,469.042,548.1577,479.042,552.1577,469.042,548.1577,473.042" style="stroke:#181818;stroke-width:1;"/><line style="stroke:#181818;stroke-width:1;" x1="548.1577" x2="548.1577" y1="515.0029" y2="535.0029"/><polygon fill="#181818" points="544.1577,525.0029,548.1577,535.0029,552.1577,525.0029,548.1577,529.0029" style="stroke:#181818;stroke-width:1;"/><line style="stroke:#181818;stroke-width:1;" x1="509.5708" x2="409.6929" y1="741.4922" y2="741.4922"/><line style="stroke:#181818;stroke-width:1;" x1="409.6929" x2="409.6929" y1="741.4922" y2="763.4922"/><polygon fill="#181818" points="405.6929,753.4922,409.6929,763.4922,413.6929,753.4922,409.6929,757.4922" style="stroke:#181818;stroke-width:1;"/><line style="stroke:#181818;stroke-width:1;" x1="586.7446" x2="686.6226" y1="741.4922" y2="741.4922"/><line style="stroke:#181818;stroke-width:1;" x1="686.6226" x2="686.6226" y1="741.4922" y2="763.4922"/><polygon fill="#181818" points="682.6226,753.4922,686.6226,763.4922,690.6226,753.4922,686.6226,757.4922" style="stroke:#181818;stroke-width:1;"/><line style="stroke:#181818;stroke-width:1;" x1="409.6929" x2="409.6929" y1="815.4141" y2="865.3359"/><line style="stroke:#181818;stroke-width:1;" x1="409.6929" x2="536.1577" y1="865.3359" y2="865.3359"/><polygon fill="#181818" points="526.1577,861.3359,536.1577,865.3359,526.1577,869.3359,530.1577,865.3359" style="stroke:#181818;stroke-width:1;"/><line style="stroke:#181818;stroke-width:1;" x1="686.6226" x2="686.6226" y1="847.3359" y2="865.3359"/><line style="stroke:#181818;stroke-width:1;" x1="686.6226" x2="560.1577" y1="865.3359" y2="865.3359"/><polygon fill="#181818" points="570.1577,861.3359,560.1577,865.3359,570.1577,869.3359,566.1577,865.3359" style="stroke:#181818;stroke-width:1;"/><line style="stroke:#181818;stroke-width:1;" x1="548.1577" x2="548.1577" y1="709.4922" y2="729.4922"/><polygon fill="#181818" points="544.1577,719.4922,548.1577,729.4922,552.1577,719.4922,548.1577,723.4922" style="stroke:#181818;stroke-width:1;"/><line style="stroke:#181818;stroke-width:1;" x1="548.1577" x2="548.1577" y1="648.2158" y2="673.5313"/><polygon fill="#181818" points="544.1577,663.5313,548.1577,673.5313,552.1577,663.5313,548.1577,667.5313" style="stroke:#181818;stroke-width:1;"/><line style="stroke:#181818;stroke-width:1;" x1="665.0068" x2="818.8335" y1="636.2158" y2="636.2158"/><polygon fill="#181818" points="814.8335,757.9336,818.8335,767.9336,822.8335,757.9336,818.8335,761.9336" style="stroke:#181818;stroke-width:1;"/><line style="stroke:#181818;stroke-width:1;" x1="818.8335" x2="818.8335" y1="636.2158" y2="909.3359"/><line style="stroke:#181818;stroke-width:1;" x1="818.8335" x2="560.1577" y1="909.3359" y2="909.3359"/><polygon fill="#181818" points="570.1577,905.3359,560.1577,909.3359,570.1577,913.3359,566.1577,909.3359" style="stroke:#181818;stroke-width:1;"/><line style="stroke:#181818;stroke-width:1;" x1="548.1577" x2="548.1577" y1="877.3359" y2="897.3359"/><polygon fill="#181818" points="544.1577,887.3359,548.1577,897.3359,552.1577,887.3359,548.1577,891.3359" style="stroke:#181818;stroke-width:1;"/><line style="stroke:#181818;stroke-width:1;" x1="548.1577" x2="548.1577" y1="586.9248" y2="624.2158"/><polygon fill="#181818" points="544.1577,614.2158,548.1577,624.2158,552.1577,614.2158,548.1577,618.2158" style="stroke:#181818;stroke-width:1;"/><line style="stroke:#181818;stroke-width:1;" x1="548.1577" x2="548.1577" y1="921.3359" y2="941.3359"/><polygon fill="#181818" points="544.1577,931.3359,548.1577,941.3359,552.1577,931.3359,548.1577,935.3359" style="stroke:#181818;stroke-width:1;"/><line style="stroke:#181818;stroke-width:1;" x1="506.4958" x2="427.4438" y1="1009.2969" y2="1009.2969"/><line style="stroke:#181818;stroke-width:1;" x1="427.4438" x2="427.4438" y1="1009.2969" y2="1031.2969"/><polygon fill="#181818" points="423.4438,1021.2969,427.4438,1031.2969,431.4438,1021.2969,427.4438,1025.2969" style="stroke:#181818;stroke-width:1;"/><line style="stroke:#181818;stroke-width:1;" x1="589.8196" x2="668.8716" y1="1009.2969" y2="1009.2969"/><line style="stroke:#181818;stroke-width:1;" x1="668.8716" x2="668.8716" y1="1009.2969" y2="1031.2969"/><polygon fill="#181818" points="664.8716,1021.2969,668.8716,1031.2969,672.8716,1021.2969,668.8716,1025.2969" style="stroke:#181818;stroke-width:1;"/><line style="stroke:#181818;stroke-width:1;" x1="427.4438" x2="427.4438" y1="1083.2188" y2="1117.1797"/><line style="stroke:#181818;stroke-width:1;" x1="427.4438" x2="536.1577" y1="1117.1797" y2="1117.1797"/><polygon fill="#181818" points="526.1577,1113.1797,536.1577,1117.1797,526.1577,1121.1797,530.1577,1117.1797" style="stroke:#181818;stroke-width:1;"/><line style="stroke:#181818;stroke-width:1;" x1="668.8716" x2="668.8716" y1="1099.1797" y2="1117.1797"/><line style="stroke:#181818;stroke-width:1;" x1="668.8716" x2="560.1577" y1="1117.1797" y2="1117.1797"/><polygon fill="#181818" points="570.1577,1113.1797,560.1577,1117.1797,570.1577,1121.1797,566.1577,1117.1797" style="stroke:#181818;stroke-width:1;"/><line style="stroke:#181818;stroke-width:1;" x1="548.1577" x2="548.1577" y1="977.2969" y2="997.2969"/><polygon fill="#181818" points="544.1577,987.2969,548.1577,997.2969,552.1577,987.2969,548.1577,991.2969" style="stroke:#181818;stroke-width:1;"/><line style="stroke:#181818;stroke-width:1;" x1="548.1577" x2="548.1577" y1="1129.1797" y2="1149.1797"/><polygon fill="#181818" points="544.1577,1139.1797,548.1577,1149.1797,552.1577,1139.1797,548.1577,1143.1797" style="stroke:#181818;stroke-width:1;"/><line style="stroke:#181818;stroke-width:1;" x1="512.6135" x2="377.4956" y1="1221.4512" y2="1221.4512"/><line style="stroke:#181818;stroke-width:1;" x1="377.4956" x2="377.4956" y1="1221.4512" y2="1243.4512"/><polygon fill="#181818" points="373.4956,1233.4512,377.4956,1243.4512,381.4956,1233.4512,377.4956,1237.4512" style="stroke:#181818;stroke-width:1;"/><line style="stroke:#181818;stroke-width:1;" x1="583.7019" x2="718.8198" y1="1221.4512" y2="1221.4512"/><line style="stroke:#181818;stroke-width:1;" x1="718.8198" x2="718.8198" y1="1221.4512" y2="1243.4512"/><polygon fill="#181818" points="714.8198,1233.4512,718.8198,1243.4512,722.8198,1233.4512,718.8198,1237.4512" style="stroke:#181818;stroke-width:1;"/><line style="stroke:#181818;stroke-width:1;" x1="377.4956" x2="377.4956" y1="1391.1387" y2="1409.1387"/><line style="stroke:#181818;stroke-width:1;" x1="377.4956" x2="536.1577" y1="1409.1387" y2="1409.1387"/><polygon fill="#181818" points="526.1577,1405.1387,536.1577,1409.1387,526.1577,1413.1387,530.1577,1409.1387" style="stroke:#181818;stroke-width:1;"/><line style="stroke:#181818;stroke-width:1;" x1="718.8198" x2="718.8198" y1="1327.2949" y2="1409.1387"/><line style="stroke:#181818;stroke-width:1;" x1="718.8198" x2="560.1577" y1="1409.1387" y2="1409.1387"/><polygon fill="#181818" points="570.1577,1405.1387,560.1577,1409.1387,570.1577,1413.1387,566.1577,1409.1387" style="stroke:#181818;stroke-width:1;"/><line style="stroke:#181818;stroke-width:1;" x1="548.1577" x2="548.1577" y1="1185.1406" y2="1209.4512"/><polygon fill="#181818" points="544.1577,1199.4512,548.1577,1209.4512,552.1577,1199.4512,548.1577,1203.4512" style="stroke:#181818;stroke-width:1;"/><line style="stroke:#181818;stroke-width:1;" x1="548.1577" x2="548.1577" y1="1421.1387" y2="1441.1387"/><polygon fill="#181818" points="544.1577,1431.1387,548.1577,1441.1387,552.1577,1431.1387,548.1577,1435.1387" style="stroke:#181818;stroke-width:1;"/><line style="stroke:#181818;stroke-width:1;" x1="548.1577" x2="548.1577" y1="1477.0996" y2="1497.0996"/><polygon fill="#181818" points="544.1577,1487.0996,548.1577,1497.0996,552.1577,1487.0996,548.1577,1491.0996" style="stroke:#181818;stroke-width:1;"/><line style="stroke:#181818;stroke-width:1;" x1="548.1577" x2="548.1577" y1="1549.0215" y2="1569.0215"/><polygon fill="#181818" points="544.1577,1559.0215,548.1577,1569.0215,552.1577,1559.0215,548.1577,1563.0215" style="stroke:#181818;stroke-width:1;"/><line style="stroke:#181818;stroke-width:1;" x1="548.1577" x2="548.1577" y1="1604.9824" y2="1624.9824"/><polygon fill="#181818" points="544.1577,1614.9824,548.1577,1624.9824,552.1577,1614.9824,548.1577,1618.9824" style="stroke:#181818;stroke-width:1;"/><line style="stroke:#181818;stroke-width:1;" x1="548.1577" x2="548.1577" y1="1676.9043" y2="1696.9043"/><polygon fill="#181818" points="544.1577,1686.9043,548.1577,1696.9043,552.1577,1686.9043,548.1577,1690.9043" style="stroke:#181818;stroke-width:1;"/><line style="stroke:#181818;stroke-width:1;" x1="548.1577" x2="548.1577" y1="1764.7871" y2="1784.7871"/><polygon fill="#181818" points="544.1577,1774.7871,548.1577,1784.7871,552.1577,1774.7871,548.1577,1778.7871" style="stroke:#181818;stroke-width:1;"/><line style="stroke:#181818;stroke-width:1;" x1="548.1577" x2="548.1577" y1="1820.748" y2="1840.748"/><polygon fill="#181818" points="544.1577,1830.748,548.1577,1840.748,552.1577,1830.748,548.1577,1834.748" style="stroke:#181818;stroke-width:1;"/><line style="stroke:#181818;stroke-width:1;" x1="548.1577" x2="548.1577" y1="1876.709" y2="1896.709"/><polygon fill="#181818" points="544.1577,1886.709,548.1577,1896.709,552.1577,1886.709,548.1577,1890.709" style="stroke:#181818;stroke-width:1;"/><!--SRC=[bLRDRjj64BxpAIO1Mb3mRwuI34EktBHDxHYMwm2vBSMXkD5ogUwF5EjbSl4pvEIRNgpVBabPafqMzS6moTcP-NvcbjO9uvB-ZN2IjQECdP7EqT2i7DqOyLNQGPBqnvDIACUcJzUYOZgXUpPMJaesZlKC6PX4DkMCzI2HHNfTkq8erIDNiawlMUfUqhSUyRIGWcQBvFtb7PsqHSzbZj-oa6pEFjnVtr8QYXoIjyjZ4ihIdUJCi9YnUTFh3H9MbjClefTGcxCkDOUab8RiiKElSn8wPyEQXWwOCezESMIdi4ResV7nyS-PDAxCXOl_eOBEPP402QLJBf2BzNa3XcBXq06bEk8Ysf2dsQEeuYbhFBxvE7ukrUNiVm9hJau72UaQh1avBHs24TucOL2EluoZbQTSikMAFhDqSwzdzExqz2SIlg2Yb8RISUtD1FWBkZFUbQ4Pb8cP8TeljROXuzoidmgq5A6t3y_dJRc8tZhXl3qJ4oSNmFNhRx_V1fuZ_FMJGhjiQJH-V__nw5Bg1QHtwqUTQsbZBo5-Xvu6ck8Y8bFrJ2XkpbFbhIKTE20nSvwL8WiQ3obd2ujbj9GCrU13sM0iZ02TRxQHxR7V95xKLKSXsYZhKWKl4WKGuBEg0f-xNU9dmr4wPrD9rqCUKx6P8UWiHYoboGblq615GrzeKLPyT05F01DucPHoCiDvEry_Oa02RsXrfyFjCd3IGs_B99rDse3uv83-N7z7ugFxfXUlfms9b5xLUbgFBfgiwMTlXLi5s-gcRBHOQzuVEgthvT-CvlwNqmB7r-nRI-sHt1zYoZIoPtK3EGKie3921sGCxKV2WttEvGpp2FqEQQWKcwcCkFRa_k3DwkYlUK1DegBDPiAxKZWAMudOBOM5Ei6b07WUgbxzCFz_yFLX_Lrhu84J24qK0WMcYaETZCkmP1JCqht2fFZOdANWur4G9sJvXDEbm89ybMs1FTPGZbTXZo0k7aLq5IT5A6d3Ddj1V3VG-wplMHLLuvpY7VZ7ugQLP1m83xRuTxBM947hWtNyN5csfHkpKjecFIC76MrO7BNk1GcwBNOGR9RBc6vVyD3V0GKz9h7U6Ek7gpWU-qveGZVJ4qUzUNPZwWLheIVymY6TuIY3IfbhP-Saklb6p845KKEyB7KOhIvxon2b6S1APyCgYFBgNe-AzPEXl9xvq5Ri6Zbcg8YBHqbimacvaIpTG3z4q2iujqnt4Hsaq8TTOKarcw-Ar-yWULwZ2yaAZYhH-o88P77PU4DliO20HxctoSOK_N2sJrSREMs9yDh8S4KRlxa8NkdhtFhi2qzUkHJQNfgP6FcgUeWNQMJ5Wpv3unNKCB9-qSX8YgckeSP1c5KWN6qvRRb-R1RrLlfBsopTRjRWcnpBFN8ThWNKWvJjU5rWobTniMnTVFWugKqUnTsiyoHjR20rTKiqVDY4OPWA18eC4Yh9ws-8tRFvjicJPzvk-M_FrksOaOIhAs46kzBk6AUpPT2EcsyeIZ6k6Iz5QKBul53nXWnIlpkbF_2OUtiI631JDK2GoU0wKKZ3N-VIyB30GXpp13QqlMrYdar1R8fQJKrSOuk6BuRbu9JvFm00]--></g></svg>