<?xml version="1.0" encoding="us-ascii" standalone="no"?><svg xmlns="http://www.w3.org/2000/svg" xmlns:xlink="http://www.w3.org/1999/xlink" contentStyleType="text/css" height="1837px" preserveAspectRatio="none" style="width:855px;height:1837px;background:#FFFFFF;" version="1.1" viewBox="0 0 855 1837" width="855px" zoomAndPan="magnify"><defs/><g><ellipse cx="374.5" cy="20" fill="#222222" rx="10" ry="10" style="stroke:#222222;stroke-width:1.0;"/><rect fill="#F1F1F1" height="35.0938" rx="12.5" ry="12.5" style="stroke:#181818;stroke-width:0.5;" width="150" x="299.5" y="50"/><text fill="#000000" font-family="sans-serif" font-size="12" lengthAdjust="spacing" textLength="130" x="309.5" y="72.457">Patient betritt Arzt Praxis</text><rect fill="#F1F1F1" height="35.0938" rx="12.5" ry="12.5" style="stroke:#181818;stroke-width:0.5;" width="262" x="243.5" y="105.0938"/><text fill="#000000" font-family="sans-serif" font-size="12" lengthAdjust="spacing" textLength="242" x="253.5" y="127.5508">Schalter: Name / Versichertenkarte abgeben</text><polygon fill="#F1F1F1" points="336.5,160.1875,412.5,160.1875,424.5,172.1875,412.5,184.1875,336.5,184.1875,324.5,172.1875,336.5,160.1875" style="stroke:#181818;stroke-width:0.5;"/><text fill="#000000" font-family="sans-serif" font-size="11" lengthAdjust="spacing" textLength="76" x="336.5" y="176.6885">KV vorhanden?</text><text fill="#000000" font-family="sans-serif" font-size="11" lengthAdjust="spacing" textLength="8" x="316.5" y="169.7705">ja</text><text fill="#000000" font-family="sans-serif" font-size="11" lengthAdjust="spacing" textLength="20" x="424.5" y="169.7705">nein</text><path d="M213,194.1875 L213,219.7148 L193,223.7148 L213,227.7148 L213,253.2422 A0,0 0 0 0 213,253.2422 L520,253.2422 A0,0 0 0 0 520,253.2422 L520,204.1875 L510,194.1875 L213,194.1875 A0,0 0 0 0 213,194.1875 " fill="#FEFFDD" style="stroke:#181818;stroke-width:0.5;"/><path d="M510,194.1875 L510,204.1875 L520,204.1875 L510,194.1875 " fill="#FEFFDD" style="stroke:#181818;stroke-width:0.5;"/><text fill="#000000" font-family="sans-serif" font-size="13" lengthAdjust="spacing" textLength="243" x="219" y="212.6826">Falls mehrere Patienten gefunden werden,</text><text fill="#000000" font-family="sans-serif" font-size="13" lengthAdjust="spacing" textLength="286" x="219" y="229.0342">weil der FHIR Server nicht auf Dopplungen der KV</text><text fill="#000000" font-family="sans-serif" font-size="13" lengthAdjust="spacing" textLength="218" x="219" y="245.3857">achtet, nehmen wir den ersten Treffer.</text><rect fill="#F1F1F1" height="50.1875" rx="12.5" ry="12.5" style="stroke:#181818;stroke-width:0.5;" width="182" x="11" y="198.6211"/><text fill="#000000" font-family="sans-serif" font-size="12" lengthAdjust="spacing" textLength="71" x="21" y="221.0781">Suche via KV</text><text fill="#000000" font-family="sans-serif" font-size="12" lengthAdjust="spacing" textLength="162" x="21" y="236.1719">GET /Patient?identifier=KVNR</text><rect fill="#F1F1F1" height="50.1875" rx="12.5" ry="12.5" style="stroke:#181818;stroke-width:0.5;" width="214" x="540" y="194.1875"/><text fill="#000000" font-family="sans-serif" font-size="12" lengthAdjust="spacing" textLength="137" x="550" y="216.6445">Suche &#252;ber Stammdaten</text><text fill="#000000" font-family="sans-serif" font-size="12" lengthAdjust="spacing" textLength="194" x="550" y="231.7383">(Name, Geburtsdatum, Adresse, ...)</text><rect fill="#F1F1F1" height="35.0938" rx="12.5" ry="12.5" style="stroke:#181818;stroke-width:0.5;" width="186" x="554" y="273.2422"/><text fill="#000000" font-family="sans-serif" font-size="12" lengthAdjust="spacing" textLength="166" x="564" y="295.6992">GET /Patient (identifier=KVNR)</text><polygon fill="#F1F1F1" points="374.5,314.3359,386.5,326.3359,374.5,338.3359,362.5,326.3359,374.5,314.3359" style="stroke:#181818;stroke-width:0.5;"/><rect fill="#F1F1F1" height="50.1875" rx="12.5" ry="12.5" style="stroke:#181818;stroke-width:0.5;" width="147" x="301" y="407.2539"/><text fill="#000000" font-family="sans-serif" font-size="12" lengthAdjust="spacing" textLength="110" x="311" y="429.7109">Patient neu anlegen</text><text fill="#000000" font-family="sans-serif" font-size="12" lengthAdjust="spacing" textLength="127" x="311" y="444.8047">POST /Patient auf FHIR</text><polygon fill="#F1F1F1" points="348.5,358.3359,400.5,358.3359,412.5,370.3359,400.5,382.3359,348.5,382.3359,336.5,370.3359,348.5,358.3359" style="stroke:#181818;stroke-width:0.5;"/><text fill="#000000" font-family="sans-serif" font-size="11" lengthAdjust="spacing" textLength="20" x="378.5" y="393.7549">nein</text><text fill="#000000" font-family="sans-serif" font-size="11" lengthAdjust="spacing" textLength="52" x="348.5" y="374.8369">gefunden?</text><text fill="#000000" font-family="sans-serif" font-size="11" lengthAdjust="spacing" textLength="8" x="412.5" y="367.9189">ja</text><polygon fill="#F1F1F1" points="374.5,477.4414,386.5,489.4414,374.5,501.4414,362.5,489.4414,374.5,477.4414" style="stroke:#181818;stroke-width:0.5;"/><path d="M424.5,511.4414 L424.5,536.9688 L404.5,540.9688 L424.5,544.9688 L424.5,570.4961 A0,0 0 0 0 424.5,570.4961 L579.5,570.4961 A0,0 0 0 0 579.5,570.4961 L579.5,521.4414 L569.5,511.4414 L424.5,511.4414 A0,0 0 0 0 424.5,511.4414 " fill="#FEFFDD" style="stroke:#181818;stroke-width:0.5;"/><path d="M569.5,511.4414 L569.5,521.4414 L579.5,521.4414 L569.5,511.4414 " fill="#FEFFDD" style="stroke:#181818;stroke-width:0.5;"/><text fill="#000000" font-family="sans-serif" font-size="13" lengthAdjust="spacing" textLength="134" x="430.5" y="529.9365">Patient existiert ab hier</text><text fill="#000000" font-family="sans-serif" font-size="13" lengthAdjust="spacing" textLength="87" x="430.5" y="546.2881">100% auf FHIR</text><text fill="#000000" font-family="sans-serif" font-size="13" lengthAdjust="spacing" textLength="96" x="430.5" y="562.6396">(Source of Truth)</text><rect fill="#F1F1F1" height="35.0938" rx="12.5" ry="12.5" style="stroke:#181818;stroke-width:0.5;" width="60" x="344.5" y="523.4219"/><text fill="#000000" font-family="sans-serif" font-size="12" lengthAdjust="spacing" textLength="40" x="354.5" y="545.8789">Wichtig</text><rect fill="#F1F1F1" height="80.375" rx="12.5" ry="12.5" style="stroke:#181818;stroke-width:0.5;" width="183" x="283" y="590.4961"/><text fill="#000000" font-family="sans-serif" font-size="12" lengthAdjust="spacing" textLength="163" x="293" y="612.9531">Anamnese / Update ausf&#252;llen</text><text fill="#000000" font-family="sans-serif" font-size="12" lengthAdjust="spacing" textLength="101" x="293" y="628.0469">(Vorerkrankungen,</text><text fill="#000000" font-family="sans-serif" font-size="12" lengthAdjust="spacing" textLength="113" x="293" y="643.1406">Dauermedikamente,</text><text fill="#000000" font-family="sans-serif" font-size="12" lengthAdjust="spacing" textLength="51" x="293" y="658.2344">Consent)</text><rect fill="#F1F1F1" height="50.1875" rx="12.5" ry="12.5" style="stroke:#181818;stroke-width:0.5;" width="237" x="256" y="690.8711"/><text fill="#000000" font-family="sans-serif" font-size="12" lengthAdjust="spacing" textLength="126" x="266" y="713.3281">Aktiven Consent pr&#252;fen</text><text fill="#000000" font-family="sans-serif" font-size="12" lengthAdjust="spacing" textLength="217" x="266" y="728.4219">GET /Consent?patient=...&amp;status=active</text><path d="M93,751.0586 L93,810.1133 L295,810.1133 L295,761.0586 L285,751.0586 L93,751.0586 " fill="#FEFFDD" style="stroke:#181818;stroke-width:0.5;"/><path d="M285,751.0586 L285,761.0586 L295,761.0586 L285,751.0586 " fill="#FEFFDD" style="stroke:#181818;stroke-width:0.5;"/><text fill="#000000" font-family="sans-serif" font-size="13" lengthAdjust="spacing" textLength="181" x="99" y="769.5537">Wenn sich nichts ge&#228;ndert hat,</text><text fill="#000000" font-family="sans-serif" font-size="13" lengthAdjust="spacing" textLength="115" x="99" y="785.9053">kann die Anamnese</text><text fill="#000000" font-family="sans-serif" font-size="13" lengthAdjust="spacing" textLength="127" x="99" y="802.2568">&#252;bersprungen werden.</text><rect fill="#F1F1F1" height="50.1875" rx="12.5" ry="12.5" style="stroke:#181818;stroke-width:0.5;" width="171" x="289" y="907.9492"/><text fill="#000000" font-family="sans-serif" font-size="12" lengthAdjust="spacing" textLength="151" x="299" y="930.4063">Keine medizinischen Daten</text><text fill="#000000" font-family="sans-serif" font-size="12" lengthAdjust="spacing" textLength="108" x="299" y="945.5">an FHIR &#252;bertragen</text><polygon fill="#F1F1F1" points="316.5,859.0313,432.5,859.0313,444.5,871.0313,432.5,883.0313,316.5,883.0313,304.5,871.0313,316.5,859.0313" style="stroke:#181818;stroke-width:0.5;"/><text fill="#000000" font-family="sans-serif" font-size="11" lengthAdjust="spacing" textLength="20" x="378.5" y="894.4502">nein</text><text fill="#000000" font-family="sans-serif" font-size="11" lengthAdjust="spacing" textLength="116" x="316.5" y="875.5322">Aktiver Permit-Consent?</text><text fill="#000000" font-family="sans-serif" font-size="11" lengthAdjust="spacing" textLength="8" x="444.5" y="868.6143">ja</text><polygon fill="#F1F1F1" points="374.5,978.1367,386.5,990.1367,374.5,1002.1367,362.5,990.1367,374.5,978.1367" style="stroke:#181818;stroke-width:0.5;"/><polygon fill="#F1F1F1" points="307,810.1133,442,810.1133,454,822.1133,442,834.1133,307,834.1133,295,822.1133,307,810.1133" style="stroke:#181818;stroke-width:0.5;"/><text fill="#000000" font-family="sans-serif" font-size="11" lengthAdjust="spacing" textLength="20" x="378.5" y="845.5322">nein</text><text fill="#000000" font-family="sans-serif" font-size="11" lengthAdjust="spacing" textLength="135" x="307" y="826.6143">Neuer Consent angegeben?</text><text fill="#000000" font-family="sans-serif" font-size="11" lengthAdjust="spacing" textLength="8" x="454" y="819.6963">ja</text><polygon fill="#F1F1F1" points="374.5,1022.1367,386.5,1034.1367,374.5,1046.1367,362.5,1034.1367,374.5,1022.1367" style="stroke:#181818;stroke-width:0.5;"/><polygon fill="#F1F1F1" points="322.5,1066.1367,426.5,1066.1367,438.5,1078.1367,426.5,1090.1367,322.5,1090.1367,310.5,1078.1367,322.5,1066.1367" style="stroke:#181818;stroke-width:0.5;"/><text fill="#000000" font-family="sans-serif" font-size="11" lengthAdjust="spacing" textLength="104" x="322.5" y="1082.6377">Anamnesis-Consent?</text><text fill="#000000" font-family="sans-serif" font-size="11" lengthAdjust="spacing" textLength="75" x="235.5" y="1075.7197">Consent: permit</text><text fill="#000000" font-family="sans-serif" font-size="11" lengthAdjust="spacing" textLength="75" x="438.5" y="1075.7197">Consent denied</text><rect fill="#F1F1F1" height="95.4688" rx="12.5" ry="12.5" style="stroke:#181818;stroke-width:0.5;" width="214" x="168.5" y="1100.1367"/><text fill="#000000" font-family="sans-serif" font-size="12" lengthAdjust="spacing" textLength="194" x="178.5" y="1122.5938">POST Bundle (transaction) an FHIR</text><text fill="#000000" font-family="sans-serif" font-size="12" lengthAdjust="spacing" textLength="53" x="178.5" y="1137.6875">Condition</text><text fill="#000000" font-family="sans-serif" font-size="12" lengthAdjust="spacing" textLength="125" x="178.5" y="1152.7813">+ MedicationStatement</text><text fill="#000000" font-family="sans-serif" font-size="12" lengthAdjust="spacing" textLength="80" x="178.5" y="1167.875">+ ggf. Consent</text><text fill="#000000" font-family="sans-serif" font-size="12" lengthAdjust="spacing" textLength="75" x="178.5" y="1182.9688">+ Provenance</text><rect fill="#F1F1F1" height="35.0938" rx="12.5" ry="12.5" style="stroke:#181818;stroke-width:0.5;" width="142" x="402.5" y="1100.1367"/><text fill="#000000" font-family="sans-serif" font-size="12" lengthAdjust="spacing" textLength="122" x="412.5" y="1122.5938">Anamnese bleibt lokal</text><polygon fill="#F1F1F1" points="374.5,1201.6055,386.5,1213.6055,374.5,1225.6055,362.5,1213.6055,374.5,1201.6055" style="stroke:#181818;stroke-width:0.5;"/><path d="M140.5,1241.8008 L140.5,1284.5039 A0,0 0 0 0 140.5,1284.5039 L260.5,1284.5039 A0,0 0 0 0 260.5,1284.5039 L260.5,1267.1523 L280.5,1263.1523 L260.5,1259.1523 L260.5,1251.8008 L250.5,1241.8008 L140.5,1241.8008 A0,0 0 0 0 140.5,1241.8008 " fill="#FEFFDD" style="stroke:#181818;stroke-width:0.5;"/><path d="M250.5,1241.8008 L250.5,1251.8008 L260.5,1251.8008 L250.5,1241.8008 " fill="#FEFFDD" style="stroke:#181818;stroke-width:0.5;"/><text fill="#000000" font-family="sans-serif" font-size="13" lengthAdjust="spacing" textLength="80" x="146.5" y="1260.2959">Vieles hiervon</text><text fill="#000000" font-family="sans-serif" font-size="13" lengthAdjust="spacing" textLength="99" x="146.5" y="1276.6475">ist nur "gespielt".</text><rect fill="#F1F1F1" height="35.0938" rx="12.5" ry="12.5" style="stroke:#181818;stroke-width:0.5;" width="188" x="280.5" y="1245.6055"/><text fill="#000000" font-family="sans-serif" font-size="12" lengthAdjust="spacing" textLength="168" x="290.5" y="1268.0625">Behandlungszimmer beim Arzt</text><path d="M548.5,1294.5039 L548.5,1328.207 L528.5,1332.207 L548.5,1336.207 L548.5,1369.9102 A0,0 0 0 0 548.5,1369.9102 L843.5,1369.9102 A0,0 0 0 0 843.5,1369.9102 L843.5,1304.5039 L833.5,1294.5039 L548.5,1294.5039 A0,0 0 0 0 548.5,1294.5039 " fill="#FEFFDD" style="stroke:#181818;stroke-width:0.5;"/><path d="M833.5,1294.5039 L833.5,1304.5039 L843.5,1304.5039 L833.5,1294.5039 " fill="#FEFFDD" style="stroke:#181818;stroke-width:0.5;"/><text fill="#000000" font-family="sans-serif" font-size="13" lengthAdjust="spacing" textLength="75" x="554.5" y="1312.999">Dummy GET</text><text fill="#000000" font-family="sans-serif" font-size="13" lengthAdjust="spacing" textLength="109" x="554.5" y="1329.3506">f&#252;r unser Szenario,</text><text fill="#000000" font-family="sans-serif" font-size="13" lengthAdjust="spacing" textLength="274" x="554.5" y="1345.7021">es wird nur im Arztzimmer gebraucht und damit</text><text fill="#000000" font-family="sans-serif" font-size="13" lengthAdjust="spacing" textLength="84" x="554.5" y="1362.0537">hier "gespielt".</text><rect fill="#F1F1F1" height="50.1875" rx="12.5" ry="12.5" style="stroke:#181818;stroke-width:0.5;" width="308" x="220.5" y="1307.1133"/><text fill="#000000" font-family="sans-serif" font-size="12" lengthAdjust="spacing" textLength="152" x="230.5" y="1329.5703">Medikationshistorie abrufen</text><text fill="#000000" font-family="sans-serif" font-size="12" lengthAdjust="spacing" textLength="288" x="230.5" y="1344.6641">GET /MedicationStatement?subject=...&amp;status=active</text><path d="M480.5,1393.6523 L480.5,1411.0039 L460.5,1415.0039 L480.5,1419.0039 L480.5,1436.3555 A0,0 0 0 0 480.5,1436.3555 L693.5,1436.3555 A0,0 0 0 0 693.5,1436.3555 L693.5,1403.6523 L683.5,1393.6523 L480.5,1393.6523 A0,0 0 0 0 480.5,1393.6523 " fill="#FEFFDD" style="stroke:#181818;stroke-width:0.5;"/><path d="M683.5,1393.6523 L683.5,1403.6523 L693.5,1403.6523 L683.5,1393.6523 " fill="#FEFFDD" style="stroke:#181818;stroke-width:0.5;"/><text fill="#000000" font-family="sans-serif" font-size="13" lengthAdjust="spacing" textLength="192" x="486.5" y="1412.1475">Medikation hier "gespielt" einfach</text><text fill="#000000" font-family="sans-serif" font-size="13" lengthAdjust="spacing" textLength="101" x="486.5" y="1428.499">zuf&#228;llig eintragen.</text><rect fill="#F1F1F1" height="50.1875" rx="12.5" ry="12.5" style="stroke:#181818;stroke-width:0.5;" width="172" x="288.5" y="1389.9102"/><text fill="#000000" font-family="sans-serif" font-size="12" lengthAdjust="spacing" textLength="64" x="298.5" y="1412.3672">Diagnose +</text><text fill="#000000" font-family="sans-serif" font-size="12" lengthAdjust="spacing" textLength="152" x="298.5" y="1427.4609">Schmerzmedikation w&#228;hlen</text><rect fill="#F1F1F1" height="35.0938" rx="12.5" ry="12.5" style="stroke:#181818;stroke-width:0.5;" width="171" x="289" y="1460.0977"/><text fill="#000000" font-family="sans-serif" font-size="12" lengthAdjust="spacing" textLength="151" x="299" y="1482.5547">Verordnung lokal speichern</text><polygon fill="#F1F1F1" points="317.5,1515.1914,431.5,1515.1914,443.5,1527.1914,431.5,1539.1914,317.5,1539.1914,305.5,1527.1914,317.5,1515.1914" style="stroke:#181818;stroke-width:0.5;"/><text fill="#000000" font-family="sans-serif" font-size="11" lengthAdjust="spacing" textLength="114" x="317.5" y="1531.6924">Verordnungs-Consent?</text><text fill="#000000" font-family="sans-serif" font-size="11" lengthAdjust="spacing" textLength="75" x="230.5" y="1524.7744">Consent: permit</text><text fill="#000000" font-family="sans-serif" font-size="11" lengthAdjust="spacing" textLength="78" x="443.5" y="1524.7744">Consent: denied</text><rect fill="#F1F1F1" height="80.375" rx="12.5" ry="12.5" style="stroke:#181818;stroke-width:0.5;" width="214" x="183" y="1549.1914"/><text fill="#000000" font-family="sans-serif" font-size="12" lengthAdjust="spacing" textLength="194" x="193" y="1571.6484">POST Bundle (transaction) an FHIR</text><text fill="#000000" font-family="sans-serif" font-size="12" lengthAdjust="spacing" textLength="106" x="193" y="1586.7422">MedicationRequest</text><text fill="#000000" font-family="sans-serif" font-size="12" lengthAdjust="spacing" textLength="80" x="193" y="1601.8359">+ ggf. Consent</text><text fill="#000000" font-family="sans-serif" font-size="12" lengthAdjust="spacing" textLength="75" x="193" y="1616.9297">+ Provenance</text><rect fill="#F1F1F1" height="50.1875" rx="12.5" ry="12.5" style="stroke:#181818;stroke-width:0.5;" width="84" x="417" y="1549.1914"/><text fill="#000000" font-family="sans-serif" font-size="12" lengthAdjust="spacing" textLength="64" x="427" y="1571.6484">Verordnung</text><text fill="#000000" font-family="sans-serif" font-size="12" lengthAdjust="spacing" textLength="59" x="427" y="1586.7422">bleibt lokal</text><polygon fill="#F1F1F1" points="374.5,1635.5664,386.5,1647.5664,374.5,1659.5664,362.5,1647.5664,374.5,1635.5664" style="stroke:#181818;stroke-width:0.5;"/><path d="M482.5,1683.3086 L482.5,1700.6602 L462.5,1704.6602 L482.5,1708.6602 L482.5,1726.0117 A0,0 0 0 0 482.5,1726.0117 L634.5,1726.0117 A0,0 0 0 0 634.5,1726.0117 L634.5,1693.3086 L624.5,1683.3086 L482.5,1683.3086 A0,0 0 0 0 482.5,1683.3086 " fill="#FEFFDD" style="stroke:#181818;stroke-width:0.5;"/><path d="M624.5,1683.3086 L624.5,1693.3086 L634.5,1693.3086 L624.5,1683.3086 " fill="#FEFFDD" style="stroke:#181818;stroke-width:0.5;"/><text fill="#000000" font-family="sans-serif" font-size="13" lengthAdjust="spacing" textLength="131" x="488.5" y="1701.8037">TTL-Index in MongoDB</text><text fill="#000000" font-family="sans-serif" font-size="13" lengthAdjust="spacing" textLength="57" x="488.5" y="1718.1553">(10 Jahre)</text><rect fill="#F1F1F1" height="50.1875" rx="12.5" ry="12.5" style="stroke:#181818;stroke-width:0.5;" width="176" x="286.5" y="1679.5664"/><text fill="#000000" font-family="sans-serif" font-size="12" lengthAdjust="spacing" textLength="156" x="296.5" y="1702.0234">Behandlungsdokumentation</text><text fill="#000000" font-family="sans-serif" font-size="12" lengthAdjust="spacing" textLength="98" x="296.5" y="1717.1172">bleibt gespeichert</text><rect fill="#F1F1F1" height="35.0938" rx="12.5" ry="12.5" style="stroke:#181818;stroke-width:0.5;" width="194" x="277.5" y="1749.7539"/><text fill="#000000" font-family="sans-serif" font-size="12" lengthAdjust="spacing" textLength="174" x="287.5" y="1772.2109">Medikation erfolgreich verordnet</text><ellipse cx="374.5" cy="1815.8477" fill="none" rx="11" ry="11" style="stroke:#222222;stroke-width:1.0;"/><ellipse cx="374.5" cy="1815.8477" fill="#222222" rx="6" ry="6" style="stroke:#222222;stroke-width:1.0;"/><line style="stroke:#181818;stroke-width:1.0;" x1="374.5" x2="374.5" y1="30" y2="50"/><polygon fill="#181818" points="370.5,40,374.5,50,378.5,40,374.5,44" style="stroke:#181818;stroke-width:1.0;"/><line style="stroke:#181818;stroke-width:1.0;" x1="374.5" x2="374.5" y1="85.0938" y2="105.0938"/><polygon fill="#181818" points="370.5,95.0938,374.5,105.0938,378.5,95.0938,374.5,99.0938" style="stroke:#181818;stroke-width:1.0;"/><line style="stroke:#181818;stroke-width:1.0;" x1="647" x2="647" y1="244.375" y2="273.2422"/><polygon fill="#181818" points="643,263.2422,647,273.2422,651,263.2422,647,267.2422" style="stroke:#181818;stroke-width:1.0;"/><line style="stroke:#181818;stroke-width:1.0;" x1="324.5" x2="102" y1="172.1875" y2="172.1875"/><line style="stroke:#181818;stroke-width:1.0;" x1="102" x2="102" y1="172.1875" y2="198.6211"/><polygon fill="#181818" points="98,188.6211,102,198.6211,106,188.6211,102,192.6211" style="stroke:#181818;stroke-width:1.0;"/><line style="stroke:#181818;stroke-width:1.0;" x1="424.5" x2="647" y1="172.1875" y2="172.1875"/><line style="stroke:#181818;stroke-width:1.0;" x1="647" x2="647" y1="172.1875" y2="194.1875"/><polygon fill="#181818" points="643,184.1875,647,194.1875,651,184.1875,647,188.1875" style="stroke:#181818;stroke-width:1.0;"/><line style="stroke:#181818;stroke-width:1.0;" x1="102" x2="102" y1="248.8086" y2="326.3359"/><line style="stroke:#181818;stroke-width:1.0;" x1="102" x2="362.5" y1="326.3359" y2="326.3359"/><polygon fill="#181818" points="352.5,322.3359,362.5,326.3359,352.5,330.3359,356.5,326.3359" style="stroke:#181818;stroke-width:1.0;"/><line style="stroke:#181818;stroke-width:1.0;" x1="647" x2="647" y1="308.3359" y2="326.3359"/><line style="stroke:#181818;stroke-width:1.0;" x1="647" x2="386.5" y1="326.3359" y2="326.3359"/><polygon fill="#181818" points="396.5,322.3359,386.5,326.3359,396.5,330.3359,392.5,326.3359" style="stroke:#181818;stroke-width:1.0;"/><line style="stroke:#181818;stroke-width:1.0;" x1="374.5" x2="374.5" y1="140.1875" y2="160.1875"/><polygon fill="#181818" points="370.5,150.1875,374.5,160.1875,378.5,150.1875,374.5,154.1875" style="stroke:#181818;stroke-width:1.0;"/><line style="stroke:#181818;stroke-width:1.0;" x1="374.5" x2="374.5" y1="382.3359" y2="407.2539"/><polygon fill="#181818" points="370.5,397.2539,374.5,407.2539,378.5,397.2539,374.5,401.2539" style="stroke:#181818;stroke-width:1.0;"/><line style="stroke:#181818;stroke-width:1.0;" x1="412.5" x2="458" y1="370.3359" y2="370.3359"/><polygon fill="#181818" points="454,422.3477,458,432.3477,462,422.3477,458,426.3477" style="stroke:#181818;stroke-width:1.0;"/><line style="stroke:#181818;stroke-width:1.0;" x1="458" x2="458" y1="370.3359" y2="489.4414"/><line style="stroke:#181818;stroke-width:1.0;" x1="458" x2="386.5" y1="489.4414" y2="489.4414"/><polygon fill="#181818" points="396.5,485.4414,386.5,489.4414,396.5,493.4414,392.5,489.4414" style="stroke:#181818;stroke-width:1.0;"/><line style="stroke:#181818;stroke-width:1.0;" x1="374.5" x2="374.5" y1="457.4414" y2="477.4414"/><polygon fill="#181818" points="370.5,467.4414,374.5,477.4414,378.5,467.4414,374.5,471.4414" style="stroke:#181818;stroke-width:1.0;"/><line style="stroke:#181818;stroke-width:1.0;" x1="374.5" x2="374.5" y1="338.3359" y2="358.3359"/><polygon fill="#181818" points="370.5,348.3359,374.5,358.3359,378.5,348.3359,374.5,352.3359" style="stroke:#181818;stroke-width:1.0;"/><line style="stroke:#181818;stroke-width:1.0;" x1="374.5" x2="374.5" y1="501.4414" y2="523.4219"/><polygon fill="#181818" points="370.5,513.4219,374.5,523.4219,378.5,513.4219,374.5,517.4219" style="stroke:#181818;stroke-width:1.0;"/><line style="stroke:#181818;stroke-width:1.0;" x1="374.5" x2="374.5" y1="558.5156" y2="590.4961"/><polygon fill="#181818" points="370.5,580.4961,374.5,590.4961,378.5,580.4961,374.5,584.4961" style="stroke:#181818;stroke-width:1.0;"/><line style="stroke:#181818;stroke-width:1.0;" x1="374.5" x2="374.5" y1="670.8711" y2="690.8711"/><polygon fill="#181818" points="370.5,680.8711,374.5,690.8711,378.5,680.8711,374.5,684.8711" style="stroke:#181818;stroke-width:1.0;"/><line style="stroke:#181818;stroke-width:1.0;" x1="374.5" x2="374.5" y1="883.0313" y2="907.9492"/><polygon fill="#181818" points="370.5,897.9492,374.5,907.9492,378.5,897.9492,374.5,901.9492" style="stroke:#181818;stroke-width:1.0;"/><line style="stroke:#181818;stroke-width:1.0;" x1="444.5" x2="470" y1="871.0313" y2="871.0313"/><polygon fill="#181818" points="466,923.043,470,933.043,474,923.043,470,927.043" style="stroke:#181818;stroke-width:1.0;"/><line style="stroke:#181818;stroke-width:1.0;" x1="470" x2="470" y1="871.0313" y2="990.1367"/><line style="stroke:#181818;stroke-width:1.0;" x1="470" x2="386.5" y1="990.1367" y2="990.1367"/><polygon fill="#181818" points="396.5,986.1367,386.5,990.1367,396.5,994.1367,392.5,990.1367" style="stroke:#181818;stroke-width:1.0;"/><line style="stroke:#181818;stroke-width:1.0;" x1="374.5" x2="374.5" y1="958.1367" y2="978.1367"/><polygon fill="#181818" points="370.5,968.1367,374.5,978.1367,378.5,968.1367,374.5,972.1367" style="stroke:#181818;stroke-width:1.0;"/><line style="stroke:#181818;stroke-width:1.0;" x1="374.5" x2="374.5" y1="834.1133" y2="859.0313"/><polygon fill="#181818" points="370.5,849.0313,374.5,859.0313,378.5,849.0313,374.5,853.0313" style="stroke:#181818;stroke-width:1.0;"/><line style="stroke:#181818;stroke-width:1.0;" x1="454" x2="492" y1="822.1133" y2="822.1133"/><polygon fill="#181818" points="488,923.043,492,933.043,496,923.043,492,927.043" style="stroke:#181818;stroke-width:1.0;"/><line style="stroke:#181818;stroke-width:1.0;" x1="492" x2="492" y1="822.1133" y2="1034.1367"/><line style="stroke:#181818;stroke-width:1.0;" x1="492" x2="386.5" y1="1034.1367" y2="1034.1367"/><polygon fill="#181818" points="396.5,1030.1367,386.5,1034.1367,396.5,1038.1367,392.5,1034.1367" style="stroke:#181818;stroke-width:1.0;"/><line style="stroke:#181818;stroke-width:1.0;" x1="374.5" x2="374.5" y1="1002.1367" y2="1022.1367"/><polygon fill="#181818" points="370.5,1012.1367,374.5,1022.1367,378.5,1012.1367,374.5,1016.1367" style="stroke:#181818;stroke-width:1.0;"/><line style="stroke:#181818;stroke-width:1.0;" x1="374.5" x2="374.5" y1="741.0586" y2="810.1133"/><polygon fill="#181818" points="370.5,800.1133,374.5,810.1133,378.5,800.1133,374.5,804.1133" style="stroke:#181818;stroke-width:1.0;"/><line style="stroke:#181818;stroke-width:1.0;" x1="310.5" x2="275.5" y1="1078.1367" y2="1078.1367"/><line style="stroke:#181818;stroke-width:1.0;" x1="275.5" x2="275.5" y1="1078.1367" y2="1100.1367"/><polygon fill="#181818" points="271.5,1090.1367,275.5,1100.1367,279.5,1090.1367,275.5,1094.1367" style="stroke:#181818;stroke-width:1.0;"/><line style="stroke:#181818;stroke-width:1.0;" x1="438.5" x2="473.5" y1="1078.1367" y2="1078.1367"/><line style="stroke:#181818;stroke-width:1.0;" x1="473.5" x2="473.5" y1="1078.1367" y2="1100.1367"/><polygon fill="#181818" points="469.5,1090.1367,473.5,1100.1367,477.5,1090.1367,473.5,1094.1367" style="stroke:#181818;stroke-width:1.0;"/><line style="stroke:#181818;stroke-width:1.0;" x1="275.5" x2="275.5" y1="1195.6055" y2="1213.6055"/><line style="stroke:#181818;stroke-width:1.0;" x1="275.5" x2="362.5" y1="1213.6055" y2="1213.6055"/><polygon fill="#181818" points="352.5,1209.6055,362.5,1213.6055,352.5,1217.6055,356.5,1213.6055" style="stroke:#181818;stroke-width:1.0;"/><line style="stroke:#181818;stroke-width:1.0;" x1="473.5" x2="473.5" y1="1135.2305" y2="1213.6055"/><line style="stroke:#181818;stroke-width:1.0;" x1="473.5" x2="386.5" y1="1213.6055" y2="1213.6055"/><polygon fill="#181818" points="396.5,1209.6055,386.5,1213.6055,396.5,1217.6055,392.5,1213.6055" style="stroke:#181818;stroke-width:1.0;"/><line style="stroke:#181818;stroke-width:1.0;" x1="374.5" x2="374.5" y1="1046.1367" y2="1066.1367"/><polygon fill="#181818" points="370.5,1056.1367,374.5,1066.1367,378.5,1056.1367,374.5,1060.1367" style="stroke:#181818;stroke-width:1.0;"/><line style="stroke:#181818;stroke-width:1.0;" x1="374.5" x2="374.5" y1="1225.6055" y2="1245.6055"/><polygon fill="#181818" points="370.5,1235.6055,374.5,1245.6055,378.5,1235.6055,374.5,1239.6055" style="stroke:#181818;stroke-width:1.0;"/><line style="stroke:#181818;stroke-width:1.0;" x1="374.5" x2="374.5" y1="1280.6992" y2="1307.1133"/><polygon fill="#181818" points="370.5,1297.1133,374.5,1307.1133,378.5,1297.1133,374.5,1301.1133" style="stroke:#181818;stroke-width:1.0;"/><line style="stroke:#181818;stroke-width:1.0;" x1="374.5" x2="374.5" y1="1357.3008" y2="1389.9102"/><polygon fill="#181818" points="370.5,1379.9102,374.5,1389.9102,378.5,1379.9102,374.5,1383.9102" style="stroke:#181818;stroke-width:1.0;"/><line style="stroke:#181818;stroke-width:1.0;" x1="374.5" x2="374.5" y1="1440.0977" y2="1460.0977"/><polygon fill="#181818" points="370.5,1450.0977,374.5,1460.0977,378.5,1450.0977,374.5,1454.0977" style="stroke:#181818;stroke-width:1.0;"/><line style="stroke:#181818;stroke-width:1.0;" x1="305.5" x2="290" y1="1527.1914" y2="1527.1914"/><line style="stroke:#181818;stroke-width:1.0;" x1="290" x2="290" y1="1527.1914" y2="1549.1914"/><polygon fill="#181818" points="286,1539.1914,290,1549.1914,294,1539.1914,290,1543.1914" style="stroke:#181818;stroke-width:1.0;"/><line style="stroke:#181818;stroke-width:1.0;" x1="443.5" x2="459" y1="1527.1914" y2="1527.1914"/><line style="stroke:#181818;stroke-width:1.0;" x1="459" x2="459" y1="1527.1914" y2="1549.1914"/><polygon fill="#181818" points="455,1539.1914,459,1549.1914,463,1539.1914,459,1543.1914" style="stroke:#181818;stroke-width:1.0;"/><line style="stroke:#181818;stroke-width:1.0;" x1="290" x2="290" y1="1629.5664" y2="1647.5664"/><line style="stroke:#181818;stroke-width:1.0;" x1="290" x2="362.5" y1="1647.5664" y2="1647.5664"/><polygon fill="#181818" points="352.5,1643.5664,362.5,1647.5664,352.5,1651.5664,356.5,1647.5664" style="stroke:#181818;stroke-width:1.0;"/><line style="stroke:#181818;stroke-width:1.0;" x1="459" x2="459" y1="1599.3789" y2="1647.5664"/><line style="stroke:#181818;stroke-width:1.0;" x1="459" x2="386.5" y1="1647.5664" y2="1647.5664"/><polygon fill="#181818" points="396.5,1643.5664,386.5,1647.5664,396.5,1651.5664,392.5,1647.5664" style="stroke:#181818;stroke-width:1.0;"/><line style="stroke:#181818;stroke-width:1.0;" x1="374.5" x2="374.5" y1="1495.1914" y2="1515.1914"/><polygon fill="#181818" points="370.5,1505.1914,374.5,1515.1914,378.5,1505.1914,374.5,1509.1914" style="stroke:#181818;stroke-width:1.0;"/><line style="stroke:#181818;stroke-width:1.0;" x1="374.5" x2="374.5" y1="1659.5664" y2="1679.5664"/><polygon fill="#181818" points="370.5,1669.5664,374.5,1679.5664,378.5,1669.5664,374.5,1673.5664" style="stroke:#181818;stroke-width:1.0;"/><line style="stroke:#181818;stroke-width:1.0;" x1="374.5" x2="374.5" y1="1729.7539" y2="1749.7539"/><polygon fill="#181818" points="370.5,1739.7539,374.5,1749.7539,378.5,1739.7539,374.5,1743.7539" style="stroke:#181818;stroke-width:1.0;"/><line style="stroke:#181818;stroke-width:1.0;" x1="374.5" x2="374.5" y1="1784.8477" y2="1804.8477"/><polygon fill="#181818" points="370.5,1794.8477,374.5,1804.8477,378.5,1794.8477,374.5,1798.8477" style="stroke:#181818;stroke-width:1.0;"/><!--SRC=[hLNDRkCs4BxpAGOBjB2nNc_sAYC8ahgxtQP9WpZrdYbh975DKIf9ELi_JnuZDxzOFrAoBQTfYm8zYJ_3cVb-I3alhHV9dVIAZQUKlLNUqwNTUhgpyfjoCo6InQgKshDDw5PMJEzfoTQfLSdMiraZ0vDC2qxPp8JAQNIzf4rjIsaoDXTZyYKR6dsLOq6KB5gSeusITBt4_DEF3_I-Bt-X4EzLhjYUNozlxsVODpMIMrMK7XEYZr9hHnMNbYrJVmxP2yxRK8qUsU8pYS6Fh3HbREdZJv_lQS5sWx51tvvaczEyRXhTcWAdGb1iXqXYc_s439TLoASiXRm07EeyMCvpjbE4iibYTuArOnePLcO0SFUS8kV2owhA94vYPnJ8cz0dJblh7LRRQaANcMNdi3oTJiS1S39aX4OlA448wgfSH9xtg4yuVj7EFfFXbgJHNCHUxdvT3Ae4DW97X-J9by2IAcPYmFy-ck4AZ2pEfLHY83wSdNrtI296YxgrAwOw1rsjByVYG9L8Besi3BjWej-Qm0pEkNpth3Nw6YrhwBgsqgoZBXCnbotRYZEr1dTGUY9-g8t3Q1nyURdsQWFS_HerTlUS8q-ai5-yQBgspq7mzyw3TNSkL-7Sh2Fnbb7Ya4AYRdJoFt0QJdMbBTsXFUNVxOkTcltq6CIunf0fuDagezmgnCvxUy1wfdDgz8wtiWZtAHeDclJA3FJumiPGk8QTfnqkmUu9Te0mfVGJiPROpnJJddCH4xl6TgRlhifqe4u4rWKhznTC_JoX9cBkt1LyT0KJQW15oyO5RcipteD14CvbAYnY_9Pk07ubmnINmtDGDQuNHJxTgn0NxcmDRQLPGQYEoBr6w5fn5kiVx9HgLgadNQ-bFjhuYiCZ52wvswggWbufgoe-RxEUIysv5ql5cbqqymPzmjzaMajl2dODjloR8Kl9JVHZWE1AXDPMXVVFjWVhlOBnmhNfLrwzRiE1gFEsglu8hwB0fR3K0Z6UaIs8iAgU23I95ocBtVL0Uc0mhPLjUDkW1cKI2ec0v-z0p9KiJ0tctWeyxyYmhGwmw77tLEhWlc5hHzZq8Z71rZaUJh5jyzsJrge8Avs3JuhYlr7Rp42FJYbo3SV_YEalup7W__FVKOrx_hrbzr_zbWmDTsmGityrNLQlsw1-h2xwy41RXzgV4lpmyCkxpxZ0tqWPkgbDKS-lnEZ36VqiyRyRlsv1_9doMXSsPAHDrnqZCNpPY3y1]--></g></svg>